<?xml version="1.0" encoding="UTF-8" standalone="no"?>
<svg
   xmlns:dc="http://purl.org/dc/elements/1.1/"
   xmlns:cc="http://creativecommons.org/ns#"
   xmlns:rdf="http://www.w3.org/1999/02/22-rdf-syntax-ns#"
   xmlns:svg="http://www.w3.org/2000/svg"
   xmlns="http://www.w3.org/2000/svg"
   viewBox="0 0 2126 2792"
   height="2792"
   width="2126"
   id="svg1373"
   version="1.1">
  <metadata
     id="metadata1379">
    <rdf:RDF>
      <cc:Work
         rdf:about="">
        <dc:format>image/svg+xml</dc:format>
        <dc:type
           rdf:resource="http://purl.org/dc/dcmitype/StillImage" />
        <dc:title></dc:title>
      </cc:Work>
    </rdf:RDF>
  </metadata>
  <defs
     id="defs1377" />
  <g
     id="g1381">
    <path
       class="wsl"
       id="path1385"
       d="m 1177.4244,2790.7783 -1.0319,-1.9281 -5.2836,0.5453 -5.2835,0.5453 -1.3422,-1.6172 -1.3422,-1.6172 h -4.19 -4.1899 l -8.4376,-2.7736 -8.4376,-2.7736 -10.5,0.6603 -10.5,0.6604 -5,-1.9972 -5,-1.9972 -9.3292,-1.3265 -9.3292,-1.3264 -2.5198,-1.651 -2.5198,-1.651 -5.151,-1.719 -5.151,-1.7189 -5,1.2109 -5,1.2108 -2.0588,0.096 -2.0589,0.096 -5.9411,-3.6342 -5.9412,-3.6341 -3,-0.6529 -3,-0.6529 -0.3146,-2.175 -0.3146,-2.1751 -2.8192,0.5639 -2.8192,0.5638 -12.2276,-4.1612 -12.2275,-4.1613 -3.6387,-2.4019 -3.6386,-2.4018 -5.50003,-1.1475 -5.5,-1.1476 -2.68976,-2.6411 -2.68975,-2.6411 -2.1315,-2 -2.13149,-2 -3.81941,-5 -3.81941,-5 -0.73137,-3.5 -0.73138,-3.5 -1.78881,-3.5354 -1.78881,-3.5354 -3.58916,-10.3114 -3.58915,-10.3114 v -2.4183 -2.4184 l -3,-5.3157 -3,-5.3157 v -3.7411 -3.7411 l -2.59502,-4.428 -2.59502,-4.4281 h 0.79797 0.79797 l -3.85327,-3.9461 -3.85327,-3.9461 1.67337,-2.5539 1.67338,-2.5539 h -1.52306 -1.52305 v -5.0657 -5.0658 l -1.18206,-2.1842 -1.18206,-2.1843 -1.27397,-6.5 -1.27397,-6.5 -2.07553,-9 -2.07553,-9 -1.54926,-5 -1.54927,-5 -3.37872,-3.071 -3.37872,-3.071 -7.90814,-1.6994 -7.90814,-1.6994 -16.79166,1.1018 -16.79166,1.1017 -2.09066,1.3145 -2.09065,1.3146 -6.65814,0.6738 -6.65814,0.6739 -1.64082,1.8131 -1.64082,1.8131 -4.54536,1.7359 -4.54537,1.7359 -8.7234,-1.1188 -8.7234,-1.1187 -5.43227,0.1 -5.43228,0.1 -2.5,0.7226 -2.5,0.7227 -2.35674,-1.5073 -2.35675,-1.5073 -0.99459,1.7772 -0.99459,1.7773 -3.28264,-0.6159 -3.28264,-0.6158 -0.50815,1.3242 -0.50815,1.3242 -9.29556,-0.8155 -9.29555,-0.8155 -1.81232,-1.6401 -1.81232,-1.6408 -1.75,1.5266 -1.75,1.5267 -15.12553,1.1607 -15.12553,1.1607 -5.12447,0.607 -5.12446,0.6069 v 1.7357 1.7357 l -3.125,0.625 -3.125,0.625 h -7.2917 -7.2916 l -0.3334,0.9557 -0.3333,0.9558 -3.7051,-0.8403 -3.7052,-0.8403 -0.3558,1.0675 -0.3559,1.0675 -21.439,-0.2519 -21.439,-0.2519 -2.3346,-1.5095 -2.3345,-1.5095 -1.8899,1.7103 -1.89,1.7104 -2.9975,-1.2416 -2.9975,-1.2417 -29.3752,0.3605 -29.3752,0.3604 -1.6464,1.3665 -1.6465,1.3665 -6.7564,-0.6784 -6.7563,-0.6783 -1.8752,-0.546 -1.8753,-0.546 0.6843,1.1072 0.6842,1.1071 h -0.6699 -0.6699 l -8.9216,-3.6121 -8.9217,-3.6121 -12.4863,1.1121 -12.4864,1.1121 h -8.9459 -8.9459 l -1.0183,-1.9026 -1.0182,-1.9026 -10.5478,-0.719 -10.5478,-0.7189 -22.2191,1.2251 -22.2192,1.2251 -2,-0.1642 -2,-0.1642 -12.7594,-0.4966 -12.7594,-0.4967 -4.7406,2.4897 -4.7406,2.4897 -8.6718,1.1598 -8.6719,1.1598 -2.0831,-0.6612 -2.0831,-0.6611 -0.5563,1.4498 -0.5564,1.4498 -3.6887,-1.0784 -3.6887,-1.0785 -34,-0.069 -34,-0.069 -3.8443,-1.3423 -3.8442,-1.3423 -7.4058,0.694 -7.4057,0.6939 v -0.9658 -0.9659 l -10.6454,-0.7256 -10.6455,-0.7256 -4.8324,-3.4717 -4.8324,-3.4718 -13.5236,0.3279 -13.5235,0.3279 0.001,-0.75 10e-4,-0.75 h -7.5314 -7.5314 l -0.5756,-1.5 -0.5756,-1.5 h -3.7706 -3.7706 l -1.2585,-1.5164 -1.2584,-1.5164 -4.7052,0.6242 -4.7052,0.6241 -3.04,-1.572 -3.0399,-1.572 -20.3688,0.993 -20.3688,0.9929 -1.7657,0.5437 -1.7657,0.5436 -3.5074,-1.1575 -3.5074,-1.1575 -3.5341,2.0851 -3.5341,2.0852 h -11.478 -11.477997 l -2.4698,-1.6183 -2.4699,-1.6183 -1.5796,1.311 -1.5797,1.3111 -9.6653,-0.2472 -9.6653,-0.2472 -13.25,-3.1327 -13.25,-3.1328 v -1.3693 -1.3694 l -2.7525,1.6259 -2.7524,1.6259 -2.7476,-1.0446 -2.7467,-1.0441 v -0.9136 -0.9137 l -1.377,0.1389 -1.3771,0.1389 -9.167,-7.25 -9.167,-7.25 h -1.2733 -1.2734001 l -1.6235,-5.25 -1.6236,-5.25 0.8119,-4.2787 0.8119,-4.2787 1.8435,-2.2213 1.8435001,-2.2213 4.3323,-4.5818 4.3324,-4.5819 6.2032,0.9199 6.2032,0.9199 2.5547,2.4119 2.5547,2.412 h 2.301 2.3009 l 6.1443,1.6011 6.1444,1.6012 4.6172,-0.5383 4.6172,-0.5383 1.8828,1.3086 1.8828,1.3086 12,0.4789 12,0.4789 2.75,-1.9185 2.75,-1.9184 v 1.0681 1.0681 h 9.299997 9.3 l 0.95,0.9232 0.95,0.9232 6.5,-1.3725 6.5,-1.3725 10.818,-2.1167 10.8181,-2.1167 1.3299,1.1038 1.3299,1.1037 1.9444,0.3745 1.9443,0.3744 5.2609,3.2371 5.2608,3.237 2.8986,-0.082 2.8986,-0.082 1.9373,-0.6149 1.9374,-0.6149 1.0961,2.048 1.0961,2.0481 h 3.3564 3.3564 l 0.6274,2.5 0.6275,2.5 h 32.7994 32.7995 l 5.2782,-1.5675 5.2782,-1.5674 1.7321,1.5674 1.732,1.5675 h 4.2669 4.2669 l 2.9581,2.1064 2.9581,2.1063 1.775,-1.6063 1.775,-1.6064 h 2.4897 2.4898 l 5.1655,1.534 5.1654,1.534 2.932,-1.5162 2.9319,-1.5162 18.2847,0.9978 18.2847,0.9978 0.7062,1.1426 0.7062,1.1427 23.4414,-0.6937 23.4413,-0.6936 1.4019,1.6939 1.4018,1.6939 4,1.8195 4,1.8196 38.5719,0.022 38.5718,0.022 4.4775,-1.5256 4.4775,-1.5257 4.6626,-3.8529 4.6625,-3.8529 8.2881,-0.5267 8.2881,-0.5268 10.6085,-0.091 10.6085,-0.091 4.3915,0.9336 4.3915,0.9335 5.5,1.4521 5.5,1.4521 -1.3724,0.1106 -1.3725,0.1106 1.3056,1.5731 1.3055,1.5731 3.7771,1.9269 3.777,1.9269 h 12.905 12.905 l 2.3848,1.75 2.3849,1.75 3.5,2 3.5,2 13,-0.066 13,-0.066 4.5,-2.2584 4.5,-2.2583 2.5,-0.4598 2.5,-0.4597 7.5,-2.4414 7.5,-2.4413 6.5,-1.5097 6.5,-1.5097 9.309,-0.015 9.309,-0.015 -0.618,-1 -0.618,-1 h 1.2131 1.213 l 3.4239,4 3.4238,4 h 1.3547 1.3547 l 0.604,-1.75 0.6039,-1.75 3.5328,-2.25 3.5328,-2.25 h 3.3809 3.381 l 0.868,1.5511 0.8681,1.5511 6.4316,-1.0436 6.4317,-1.0435 h 7 6.99999 l 3.71148,1.0307 3.71147,1.0308 5.28853,-2.7077 5.28852,-2.7077 2.75,0.1872 2.75,0.1873 v -1.8993 -1.8992 l 2.25,-0.603 2.25,-0.603 12.66667,-0.014 12.66666,-0.014 0.36815,1.1044 0.36815,1.1045 8.32036,-1.5693 8.32035,-1.5693 1.14483,-0.9312 1.14483,-0.9313 13,-0.6954 13,-0.6953 5.36869,-1.514 5.36868,-1.514 2.25632,1.2075 2.25631,1.2076 2.25,-1.2042 2.25,-1.2042 2.34091,1.2529 2.34091,1.2528 1.28409,-1.0388 1.28409,-1.0388 5.39239,-0.7253 5.39238,-0.7254 10.19194,-4.3785 10.19195,-4.3784 3.29184,-0.6584 3.29184,-0.6584 0.92352,1.6503 0.92352,1.6502 h 2.25031 2.25031 l 1.12588,1.1259 1.12589,1.1259 7.02166,-1.7208 7.02166,-1.7207 3.80245,1.2628 3.80246,1.2628 5.96664,0.582 5.96664,0.5821 3.70985,5.3156 3.70985,5.3155 -0.53508,3.2973 -0.53507,3.2973 1.19753,2.2376 1.19752,2.2376 2.97044,-0.436 2.97043,-0.4359 1.40471,2.7164 1.40471,2.7164 3.03591,2.5545 3.03592,2.5546 v 3.9972 3.9971 l 2,0.6348 2,0.6348 v 1.6288 1.6289 l 2.51469,3.6287 2.51469,3.6287 1.4975,7.8267 1.49751,7.8268 1.9878,3.2163 1.98781,3.2164 v 1.6718 1.6718 l 2,3.9203 2,3.9203 v 2.3528 2.3527 l 2.9843,2.8592 2.98431,2.8591 -0.59498,3.7208 -0.59499,3.7209 3.95159,5.3571 3.9515,5.3571 1.7396,5.25 1.7394,5.25 h 1.4197 1.4196 l 0.07,5.25 0.07,5.25 10.8467,9.5855 10.8467,9.5855 6.0504,2.2061 6.0503,2.206 0.5924,0.9585 0.5923,0.9584 h 2.8244 2.8243 l 0.5241,2.0041 0.5241,2.0042 1.5926,-0.6112 1.5925,-0.6111 0.01,1.357 0.01,1.357 3.9899,1.6757 3.9898,1.6758 v 2.0742 2.0743 h 1.5923 1.5922 l 2.5426,2 2.5426,2 h 3.2582 3.2581 l 0.5756,1.5 0.5756,1.5 h 1.9747 1.9747 l 1.4295,2.0409 1.4295,2.0409 6.6272,-0.679 6.6272,-0.679 v 1.0253 1.0252 l 6.9265,0.3914 6.9266,0.3914 2.0009,1.8108 2.0009,1.8108 8.0073,-0.3035 8.0072,-0.3034 1.994,1.8046 1.994,1.8045 9.862,0.5434 9.8621,0.5435 3.4593,-1.7509 3.4592,-1.7508 2.2249,-2.0338 2.2248,-2.0337 7.2752,1.1982 7.2751,1.1981 3.5422,3.4526 3.5421,3.4525 h 2.7079 2.7078 v 1.7143 1.7143 l 1.7084,-1.7085 1.7085,-1.7084 3.0798,2.9851 3.0798,2.9851 3.2117,-0.9212 3.2118,-0.9211 v 1.4302 1.4302 h 1.607 1.607 l -0.5756,-1.5 -0.5756,-1.5 h 0.5182 0.5183 l 2.9504,1.5257 2.9503,1.5257 v -1.5257 -1.5257 h 2.3395 2.3395 l 1.139,-2.5 1.1391,-2.5 h 1.5547 1.5547 l 4.7167,-2.4068 4.7168,-2.4067 2.6864,-2.8433 2.6864,-2.8432 1.0087,-2.6707 1.0087,-2.6708 1.8923,0.4949 1.8922,0.4948 -0.087,-2.0621 -0.087,-2.062 7.9541,-8.0121 7.9541,-8.012 h 1.2003 1.2003 l 2.2738,-5.4859 2.2738,-5.486 5.3218,-3.2253 5.3218,-3.2254 v -1.663 -1.6629 l 1.5263,-4.3758 1.5264,-4.3757 1.3534,-1.0223 1.3534,-1.0223 1.6203,-7.8347 1.6202,-7.8346 v -0.3931 -0.393 h 2.6084 2.6084 l -0.6267,-2.4971 -0.6267,-2.4971 2.5183,-4.9696 2.5183,-4.9697 v -5.9238 -5.9237 l -2.5252,-9.7189 -2.5251,-9.7189 1.17,-3.2357 1.1701,-3.2358 8.8192,-5.1548 8.8191,-5.1549 h 2.1257 2.1256 l 1.7492,-2.1602 1.7493,-2.1602 7.5707,2.7612 7.5708,2.7612 2.8292,2.9531 2.8293,2.9531 6.2074,-0.2788 6.2075,-0.2787 2.423,2.2762 2.423,2.2763 14.3806,-1.6658 14.3806,-1.6658 21.7993,0.7072 21.7994,0.7073 5.7006,2.0095 5.7007,2.0095 8.5,-1.1316 8.5,-1.1315 7,0.012 7,0.012 3,0.1732 3,0.1733 10,-1.264 10,-1.2639 11.2469,1.2701 11.2468,1.2701 2.5502,-1.162 2.5502,-1.1619 3.203,0.01 3.2029,0.01 9.8999,1.4921 9.8999,1.4922 1.1491,-0.9537 1.1492,-0.9537 5.4509,2.563 5.451,2.5631 4.321,-1.1226 4.321,-1.1225 0.973,0.6013 0.973,0.6014 2.3385,-1.5323 2.3386,-1.5323 1.8675,1.4143 1.8674,1.4143 13.8692,0.032 13.8692,0.032 5.8808,3.5724 5.8808,3.5724 v 1.4276 1.4276 h 3 3 v 1.107 1.107 l 1.4362,-0.5511 1.4362,-0.5511 2.5591,2.013 2.5591,2.013 2.0537,-0.6518 2.0536,-0.6519 2.4049,1.5758 2.4049,1.5757 2.6696,-1.015 2.6697,-1.015 1.3092,1.7722 1.3092,1.7722 1.2673,-1.25 1.2673,-1.25 h 6.5229 6.5229 l 14.9488,-2.6013 14.9488,-2.6013 1.795,-2.1487 1.7951,-2.1487 0.033,1.25 0.033,1.25 h 5.4503 5.4503 l 0.9747,-1.7417 0.9747,-1.7416 0.7508,0.7508 0.7508,0.7508 2.1403,-2.0107 2.1403,-2.0107 8.4339,1.087 8.4339,1.0871 4,1.5973 4,1.5973 2.75,2.5043 2.75,2.5043 v 7.2927 7.2926 l -1.6149,4.2703 -1.6149,4.2702 -3.0973,2.75 -3.0974,2.75 h -2.1529 -2.1529 l -2.4921,1.9603 -2.4921,1.9603 -3.6343,-0.5898 -3.6343,-0.5897 -1.4084,1.1689 -1.4085,1.1689 -6.35,0.9965 -6.35,0.9965 -3,1.3515 -3,1.3514 -5.999,0.7157 -5.9989,0.7156 -2.8239,1.4603 -2.8238,1.4603 -18.6772,0.9057 -18.6772,0.9057 -9.5,1.513 -9.5,1.513 -1.25,0.018 -1.25,0.018 v 1.5938 1.5939 l -5.25,-0.7127 -5.25,-0.7127 -3.6988,-1.8753 -3.6988,-1.8754 -4.9926,1.1524 -4.9927,1.1525 -4.63,-1.7683 -4.63,-1.7682 -9.1785,-0.3563 -9.1786,-0.3563 -19.7753,-1.4209 -19.7753,-1.421 -3.8777,0.9843 -3.8777,0.9842 -1.9423,-1.9423 -1.9423,-1.9423 -15.9047,-0.5914 -15.9047,-0.5914 -5.3735,-1.6387 -5.3735,-1.6387 -10.1192,-0.7839 -10.1191,-0.7838 -1.0074,1.2888 -1.0073,1.2889 -6.2518,0.3204 -6.2518,0.3204 v -1.2309 -1.231 l -2.5185,-0.6321 -2.5185,-0.6321 -2.7315,0.6888 -2.7315,0.6888 -8.6023,0.8491 -8.6024,0.8492 -3.7867,1.5821 -3.7867,1.5822 -1.3797,-1.145 -1.3797,-1.1451 -1.8635,1.6864 -1.8634,1.6864 -11.8678,-1.4969 -11.8678,-1.4969 -12.25,-0.68 -12.25,-0.68 v 1.1805 1.1805 l -3,1.0458 -3,1.0459 v 4.3831 4.3831 l -2.5,0.6275 -2.5,0.6274 v 0.8513 0.8513 l -3.9768,3.6794 -3.9768,3.6795 -0.6657,2.0977 -0.6658,2.0978 -2.4522,3.7054 -2.4521,3.7054 0.6847,1.1078 0.6847,1.1078 -4.7001,5.0247 -4.7,5.0247 0.6041,3.0204 0.6041,3.0204 -2.0907,0.5467 -2.0906,0.5467 0.5935,2.9675 0.5934,2.9674 -2.4968,2.9674 -2.4969,2.9674 v 2.7271 2.7271 l -3.4812,3.374 -3.4811,3.3741 -1.1651,3.5303 -1.1651,3.5303 0.079,2.7918 0.079,2.7918 h -1.4331 -1.4331 v 1.7894 1.7893 l -4.1922,5.7107 -4.1922,5.7106 h -2.1528 -2.1528 l -1.8771,2.0741 -1.877,2.0742 -2.4219,-0.463 -2.4218,-0.463 -3.4557,1.4439 -3.4556,1.4438 -1.1504,-1.571 -1.1505,-1.571 -4.8027,0.6592 -4.8027,0.6591 -2.0774,4.1068 -2.0774,4.1069 -1.3248,0.7744 -1.3248,0.7745 -2.6817,5.9755 -2.6816,5.9756 h -1.8816 -1.8816 l -10.147,5.092 -10.1469,5.092 -2.8934,-0.5787 -2.8934,-0.5787 -2.7571,2.0385 -2.7572,2.0384 -19.4343,0.9112 -19.4344,0.9111 -2.2148,0.037 -2.2148,0.037 -1.0319,-1.9281 z m 180.9615,-198.6552 v -1.5834 l -1.1875,0.3959 -1.1875,0.3958 -0.3958,1.1875 -0.3959,1.1875 h 1.5834 1.5833 z m -189.4411,95.0515 -1.9412,-1.4682 h -2.2498 -2.2499 l -0.6645,1.0752 -0.6645,1.0752 -2.2934,-2.1545 -2.2934,-2.1546 -17.1553,-0.9242 -17.1552,-0.9243 -3.8275,3.0758 -3.8274,3.0758 -7.0934,-3.5722 -7.0935,-3.5722 h -2.0249 -2.025 v -1.559 -1.559 l -0.9586,0.5924 -0.9586,0.5924 -7.2914,-3.6324 -7.2914,-3.6324 -4.25,-4.1092 -4.25,-4.1092 v -2.7918 -2.7918 h -1.5 -1.5 v -5.5 -5.5 h -1.5 -1.5 v -5.5 -5.5 h -1.0344 -1.0345 l 0.6633,-5 0.6633,-5 h -1.6289 -1.6288 v -3.8326 -3.8327 l -4,-3.2145 -4,-3.2144 v -1.9177 -1.9177 l -2.0856,-1.1162 -2.0857,-1.1162 0.5717,-0.5717 0.5717,-0.5717 -3.1354,-5.5973 -3.1354,-5.5973 -2.5377,-2.75 -2.5378,-2.75 h -1.2362 -1.2361 l -3.1298,-2.6335 -3.1297,-2.6335 -2.8616,-5.6165 -2.8615,-5.6165 -4.3355,-4.1768 -4.3354,-4.1768 -4,-0.7121 -4,-0.712 -3.7275,-2.1112 -3.7276,-2.1111 -1.14686,-2.7575 -1.1469,-2.7574 -5.73883,-5.3132 -5.73883,-5.3131 -1.24262,-3.7652 -1.24261,-3.7651 -2.88954,-3.291 -2.88954,-3.291 -2.85346,-1.182 -2.85346,-1.1819 -2.21307,-3.9377 -2.21307,-3.9376 -3.39298,-2.5879 -3.39298,-2.588 -4.73574,-1.4252 -4.73574,-1.4253 -3.14143,0.5893 -3.14142,0.5894 -7.23628,-2.198 -7.23627,-2.1979 -5.68165,0.5205 -5.68165,0.5205 -8.5,-2.4964 -8.5,-2.4963 -1.16692,-1.4835 -1.16692,-1.4835 -19.83308,0.5432 -19.83308,0.5431 -3.41529,0.2844 -3.4153,0.2843 -0.41756,1.2486 -0.41756,1.2485 -3.79155,-0.6063 -3.79155,-0.6062 -0.68461,1.1077 -0.68461,1.1077 h -5.70932 -5.70931 l -4.6749,3.8631 -4.67491,3.8631 -3.95195,0.632 -3.95196,0.6319 -6.35481,3.6421 -6.35481,3.6421 -10.5,0.4895 -10.5,0.4896 -4,2.0647 -4,2.0647 -12.5,0.6926 -12.5,0.6925 -4.60137,2.0168 -4.60137,2.0168 -7.66305,0.7181 -7.6631,0.7181 -0.5446,0.8811 -0.5445,0.8812 h -3.2874 -3.2873 l -2.9037,1.3865 -2.9036,1.3865 -6.7699,0.6434 -6.7699,0.6434 -0.5849,-1.5242 -0.5849,-1.5241 -0.7819,0.4832 -0.7819,0.4833 -1.3254,-1.5971 -1.3254,-1.597 -12.5379,0.7186 -12.5379,0.7185 -4.0879,2.3895 -4.0878,2.3895 h -0.8172 -0.8171 l 1.81,-2 1.81,-2 h -3.7906 -3.7906 l -13.1144,3.6035 -13.1144,3.6035 -2.3344,1.4749 -2.3344,1.4748 -9.856,-3.1647 -9.856,-3.1646 -2.0596,0.6537 -2.0596,0.6537 v -0.9069 -0.9069 l -2.6546,-1.2095 -2.6546,-1.2095 -9.3357,0.6853 -9.3357,0.6853 -4.3438,-4.004 -4.3439,-4.004 -3.9158,-1.3823 -3.9159,-1.3823 h -30 -30 l -5.9681,1.3662 -5.9682,1.3662 -4.4466,4.3838 -4.4466,4.3838 h -36.3353 -36.3352 v -1.3923 -1.3923 l -6.75,-1.5509 -6.75,-1.5509 -33.5,-0.6139 -33.5,-0.6139 -17,-0.7838 -17,-0.7839 -1.75,-0.766 -1.75,-0.7661 v 1.1694 1.1694 l -10.75,-0.4128 -10.75,-0.4127 -5.4679,-1.6496 -5.468,-1.6497 h -26.6596 -26.6596 l -1.2927,-1.5576 -1.2928,-1.5577 -4.5598,-2.6722 -4.5598,-2.6722 -9.5199,-0.1798 -9.5199,-0.1798 -2.1583,1.3726 -2.1583,1.3726 -1.2141,-1.4629 -1.2142,-1.463 h -3.3775 -3.3776 v -1.5 -1.5 h -1.8671 -1.8671 l -2.6287,-3.9721 -2.6286,-3.9721 -2.7542,-1.4025 -2.7543,-1.4025 -10.5,1.3269 -10.5,1.3268 -7.0697,0.048 -7.0696,0.048 -2.1367,-2.4574 -2.1367,-2.4574 -4.224597,-2.1552 -4.2245,-2.1552 -1.7858,-2.1374 -1.7859,-2.1374 -0.033,-2.6826 -0.033,-2.6826 -1.8951,-0.6015 -1.8951,-0.6015 -0.7484,-3.7159 -0.7484,-3.7159 -0.7308,-10.5 -0.7308,-10.5 -2.1086,-7.5 -2.1085,-7.5 -0.017,-6.3456 -0.017,-6.3457 -2.16,-3.0334 -2.16,-3.0334 1.16,-1.8574 1.16,-1.8574 v -1.5135 -1.5136 h -1.9281 -1.928 l -0.6259,-5.75 -0.626,-5.75 -0.9056,-6.416 -0.9056,-6.416 -0.8802,-0.584 -0.8803,-0.584 -4.6602,-9.8839 -4.6601,-9.8839 v -2.819 -2.8191 l -1.1587,-2.543 -1.1586,-2.543 1.7799,-1.9668 1.7799,-1.9668 -0.7498,-1.7873 -0.7499,-1.7872 -0.3558,-2 -0.3558,-2 -0.9615,-9.3655 -0.9615,-9.3654 -0.6321,-2.8777 -0.632,-2.8777 2.0919,-2.6595 2.092,-2.6595 -0.4284,-0.4284 -0.4283,-0.4283 -2.0199,1.081 -2.0199,1.081 h -1.0658 -1.0657 v -2.5936 -2.5936 l 1.9761,-0.5168 1.9761,-0.5168 -1.1246,-2.1013 -1.1246,-2.1013 -3.2313,-15.0383 -3.2314,-15.0383 -0.6942,-4.1681 -0.6942,-4.168 -0.7777,-14.332 -0.7776,-14.3319 -0.7553,-1.75 -0.7553,-1.75 h 2.1744 2.1744 l -0.6826,-2.25 -0.6826,-2.25 -0.092,-0.5 -0.092,-0.5 0.7191,-4.25 0.719,-4.25 h 1.4616 1.4617 l 3.5265,-5.2367 3.5266,-5.2366 v -2.1409 -2.1409 l 1.5546,-1.2902 1.5546,-1.2902 1.0163,-1.8991 1.0164,-1.899 1.2956,-8.6832 1.2956,-8.6832 -0.8666,-1.6843 -0.8665,-1.6847 v -10.1964 -10.1964 l -1.5843,-9.9652 -1.5843,-9.9651 1.9763,-2.1542 1.9764,-2.1542 0.7374,-3.5 0.7374,-3.5 2.2888,-2.7295 2.2887,-2.7296 0.5685,-6.7704 0.5685,-6.7705 0.9383,-8.6789 0.9382,-8.679 -0.511,-1.9542 -0.5111,-1.9543 1.519,-2.9374 1.519,-2.9374 1.9834,-7.9294 1.9833,-7.9294 -0.5435,-5.25 -0.5435,-5.25 h 1.5044 1.5044 l -0.5063,-4.4919 -0.5063,-4.492 1.0873,-1.3101 1.0873,-1.3101 -0.5681,-2.1723 -0.5681,-2.1723 3.11,-5.5105 3.1099,-5.5105 v -2.055 -2.055 l 2,-3.9203 2,-3.9203 v -9.6355 -9.6355 l 2.1779,-3.0586 2.178,-3.0586 0.572,-10.3963 0.5721,-10.3962 -0.8431,-0.8426 -0.8431,-0.8426 1.5152,-2.3569 1.5151,-2.3569 0.6934,-4.7623 0.6933,-4.7623 0.884597,-0.5467 0.8846,-0.5467 v -1.8913 -1.8913 l -1.609497,-0.9007 -1.6094,-0.9007 1.6094,-0.6176 1.609497,-0.6176 0.01,-4.2814 0.01,-4.2814 1.0366,-6.3886 1.0366,-6.3885 -2.0442,-2.1759 -2.044197,-2.1759 v -5.546 -5.546 l 2.619297,-3.8597 2.6193,-3.8598 1.4017,-4.7201 1.4017,-4.72 -0.7968,-11.6397 -0.7968,-11.6396 2.2933,-1.6706 2.2934,-1.6706 0.6314,-5.3309 0.6314,-5.3308 2.101,-0.8041 2.1011,-0.8041 3.2971,-4.1146 3.2971,-4.1145 h 2.4432 2.4432 l 3.4849,-4.75 3.4849,-4.75 0.025,-2.7905 0.025,-2.7905 2.1931,-2.9664 2.1932,-2.9663 -1.1932,-1.1932 -1.1931,-1.1931 0.01,-18.55 0.01,-18.55 1.5752,-3 1.5752,-3 -0.5182,-3.2486 -0.5183,-3.2486 1.9369,-1.0366 1.9369,-1.0366 v -2.9334 -2.9334 l 1.4826,0.5689 1.4826,0.5689 4.7001,-4.1372 4.7001,-4.1372 1.3173,0.5055 1.3173,0.5055 v -0.9822 -0.9821 l -1.1441,-1.832 -1.1441,-1.8321 2.0502,-2.9044 2.0502,-2.9044 0.6531,-6.5 0.653,-6.5 2.4409,-3.7286 2.4408,-3.7285 v -3.4744 -3.4744 l 0.9713,-2.297 0.9713,-2.2971 1.5287,-20.5918 1.5287,-20.5919 v -10.1717 -10.1717 l -1.1361,-1.8192 -1.1362,-1.8193 0.7065,-5.4172 0.7065,-5.4172 5.9042,-4.4271 5.9043,-4.4271 -0.583,-2.3229 -0.583,-2.3229 h 1.6084 1.6084 l 0.015,-0.25 0.015,-0.25 1.3951,-4 1.3951,-4 -0.784,-1 -0.784,-1 -0.6875,-4.75 -0.6874,-4.75 h 1.1726 1.1725 l -0.6822,-3.6364 -0.6821,-3.6364 2.1248,-5.6817 2.1248,-5.6817 -2.0077,-7.2451 -2.0078,-7.2451 1.0919,-5.4368 1.0919,-5.4368 h 0.8369 0.837 l -0.5344,-2.75 -0.5344,-2.75 6.5594,-6.4711 6.5594,-6.4711 v -1.5384 -1.5383 l 2,-1.249 2,-1.249 v -3.0549 -3.0549 l 4.0997,-9.998 4.0998,-9.998 -0.6593,-3.5145 -0.6593,-3.5144 1.1261,-1.3568 1.126,-1.3568 0.8063,-10.8955 0.8063,-10.8954 1.2358,-2.3091 1.2357,-2.3091 -0.5093,-3.1384 -0.5092,-3.1384 1.332,-1.8216 1.332,-1.8217 -0.4718,-1.2294 -0.4717,-1.2294 4.0404,-1.3335 4.0405,-1.3334 v -1.4797 -1.4797 l 1.713,-1.2526 1.713,-1.2526 0.3864,-10.3576 0.3864,-10.3577 1.4006,-1.5787 1.4006,-1.5788 v -2.8461 -2.846 l 2.57,-7.4461 2.57,-7.446 2.18,-3.3668 2.18,-3.3667 2.0981,-0.012 2.0981,-0.012 1.9019,-4.2251 1.9019,-4.2251 3.75,-4.3357 3.75,-4.3357 0.01,-5.1892 0.01,-5.1892 1.4345,-2.75 1.4345,-2.75 h -0.9407 -0.9407 v -17.1713 -17.1712 l -1.4256,-1.5788 -1.4256,-1.5787 -0.2601,-6.5 -0.2601,-6.5 2.1201,-4.0815 2.1201,-4.0816 6.1675,-5.71 6.1676,-5.71 1.6531,-10.3591 1.6532,-10.359 1.7324,-1.9144 1.7325,-1.9143 1.1103,-3.185 1.1103,-3.1851 h 1.2722 1.2722 l 1.3546,-4.75 1.3546,-4.75 -0.1026,-0.5 -0.1025,-0.5 -0.6315,-3.5589 -0.6316,-3.559 3.4746,-4.0593 3.4746,-4.0592 -0.5904,-0.5905 -0.5905,-0.5904 5.0257,-6.7913 5.0256,-6.7914 1.1626,-4.3407 1.1627,-4.3406 -1.063,-6.8509 -1.063,-6.8509 v -5.4515 -5.4514 l 1.5,-0.5756 1.5,-0.5756 v -19.3197 -19.3196 l 4.3568,-3.6418 4.3567,-3.6417 6.131,-1.1118 6.1309,-1.1117 1.9466,1.0417 1.9466,1.0418 h 2.509 2.509 l 1.493,-2.1315 1.4929,-2.1314 1.5364,0.5896 1.5364,0.5895 1.5274,-2.1806 1.5273,-2.1806 v -2.2185 -2.2185 l 1,-0.618 1,-0.618 v -4.941 -4.941 h 1.4225 1.4224 l 0.982,-3.25 0.982,-3.25 1.2433,-10.75 1.2433,-10.75 h 1.4831 1.4831 l -0.5679,-3.5 -0.568,-3.5 h 1.9371 1.9371 v -7 -7 h 1.5 1.5 v -2.5136 -2.5135 l 1.0024,-1.7365 1.0023,-1.7364 2.4596,-18.5848 2.4596,-18.5847 1.0381,-2.7304 1.038,-2.7303 v -5.4663 -5.4663 l 1.4385,-0.552 1.4385,-0.5519 0.6906,-5.5279 0.6907,-5.5278 -1.0874,-0.672 -1.0875,-0.6721 2.3911,-7.74974 2.3911,-7.74975 0.2909,-2.21994 0.2909,-2.21995 -1.2433,-3.00158 -1.2433,-3.00159 1.0666,-6.4955 1.0667,-6.49549 0.9016,-6.5 0.9016,-6.5 0.051,-6.19098 0.051,-6.19099 0.9418,-0.58201 0.9417,-0.58201 0.6875,-6.977 0.6875,-6.97701 h 1.203 1.2031 l -0.4586,-5.52967 -0.4585,-5.52966 1.2386,-11.21623 1.2385,-11.21622 2.7289,-3.10798 2.7288,-3.10798 1.247,-6.39613 1.247,-6.39613 1.8024,-3 1.8024,-3 -0.504,-3.25 -0.5041,-3.25 h 1.5157 1.5157 l 1.0858,-3.11487 1.0859,-3.11487 -0.5384,-0.87112 -0.5384,-0.87113 2.5504,-4.35186 2.5503,-4.35187 v -5.43963 -5.43964 l 1.5892,-2.26888 1.5892,-2.26889 -0.535,-1.39416 -0.535,-1.39416 3.009,-11.23059 3.009,-11.23059 1.3827,-1.97419 1.3828,-1.97419 -0.5362,-2.68111 -0.5362,-2.68111 1.5903,-5.35507 1.5907,-5.35587 v -3.78148 -3.78148 l 1.9769,-5.01543 1.9769,-5.01544 -0.5982,-1.55883 -0.5982,-1.55883 1.5413,-1.71276 1.5413,-1.71275 2.08,-8.16661 2.08,-8.16662 v -8.46094 -8.46094 l 1.5,-1.24489 1.5,-1.24489 v -6.90894 -6.90894 l 1.5,-0.5756 1.5,-0.57561 v -2.73802 -2.73802 l 2,-1.80998 2,-1.80998 v -3.32998 -3.32999 l 2.8805,-4.76503 2.8804,-4.76502 0.6343,-3.58728 0.6344,-3.58727 3.7297,-4.35731 3.7296,-4.3573 2.0441,-6.55542 2.0441,-6.55542 2.7115,-1.30457 2.7114,-1.30456 v -2.23635 -2.23635 l 5.0701,-7.95909 5.0701,-7.95908 2.4659,-4.78785 2.466,-4.78786 2.4639,-1.12266 2.464,-1.12266 v -1.38233 -1.38232 l 4.5,-4.81087 4.5,-4.81086 v -1.4592 -1.45921 l 3,-2.87418 3,-2.87418 0.024,-2.56291 0.024,-2.56291 4.9764,-2.18627 4.9765,-2.18626 v -2.06374 -2.06373 h 1.3477 1.3478 l 5.4485,-5.75 5.4484,-5.75 6.7935,-8.25 6.7935,-8.25 h 1.492 1.492 l 4.2713,-3.5 4.2712,-3.5 2.397,-0.0213 2.3971,-0.0213 2.7193,-3.84583 2.7194,-3.84583 2.4023,0.45922 2.4023,0.45923 3.2912,-1.70193 3.2911,-1.70193 5.5872,-1.94362 5.5872,-1.94363 4.8355,-0.93683 4.8355,-0.93682 5.1645,-2.58448 5.1645,-2.58447 2.0741,-1.93434 2.0742,-1.93433 0.6232,0.62321 0.6233,0.62322 3.3026,-1.99624 3.3026,-1.99624 4.5,-0.64531 4.5,-0.64531 7.7268,-2.38797 7.7269,-2.38797 2.9275,-2.08455 2.9275,-2.08455 h 2.2246 2.2247 l 6.9306,-2.5 6.9305,-2.5 h 2.9405 2.9404 v -1.81479 -1.81479 l 3.5339,-1.68521 3.5339,-1.68521 h 1.4946 1.4946 l 5.9199,-2.98839 5.92,-2.98838 1.5515,0.59537 1.5516,0.59538 v -1.44684 -1.44683 l 7.25,-1.28866 7.25,-1.28865 1.9013,-1.32168 1.9014,-1.32167 3.5034,1.4638 3.5033,1.4638 2.0953,-1.36276 2.0953,-1.36276 3.672,-0.68155 3.672,-0.68155 0.7003,1.13308 0.7003,1.13308 17.14229,-0.71416 17.14233,-0.71415 3.65099,1.52548 3.65099,1.52548 3.58437,-0.80841 3.58438,-0.80841 v 1.73616 1.73615 l 4.75,-0.7257 4.75,-0.72569 4.91419,2.48427 4.91419,2.48428 5.08581,-1.01024 5.08581,-1.01024 0.70778,1.24597 0.70779,1.24597 5.4375,-0.45092 5.43751,-0.45092 5.35471,1.73184 5.35471,1.73185 4.5,4.27576 4.5,4.27576 3.20034,1.60754 3.20034,1.60754 h 2.22092 2.22092 l 1.73295,1.5683 1.73295,1.56829 1.84579,-1.14442 1.84579,-1.14443 8.33861,3.57613 8.33862,3.57613 h 3.45188 3.45188 l 2.7095,1.90406 2.70951,1.90406 7.66124,0.6296 7.66124,0.62959 6.35029,1.32866 6.35028,1.32865 5.04819,2.55811 5.04819,2.55811 11.7923,2.14312 11.79229,2.14311 2.14799,0.79288 2.14799,0.79289 1.14706,-0.40544 1.14706,-0.40544 -0.14706,1.72788 -0.14706,1.72789 5.42079,3.82113 5.4208,3.82114 h 4.84737 4.84738 l 9.96366,5 9.96366,5 h 2.95078 2.95083 l 0.6277,1.9777 0.6277,1.97769 3.8821,1.04532 3.882,1.04533 4.6791,5.47698 4.6791,5.47698 h 2.2619 2.2619 l 0.5051,1.93123 0.505,1.93122 6.8616,3.42592 6.8616,3.42592 10.7425,3.14286 10.7424,3.14285 h 5.8352 5.8351 l 6.1525,2.5 6.1526,2.5 h 14.5519 14.552 l 3.4679,-1.44897 3.4679,-1.44898 v -1.05102 -1.05103 l 7.25,-0.0354 7.25,-0.0354 2.4679,-1.36634 2.4678,-1.36634 3.0322,0.48952 3.0321,0.48952 8.1666,-2.08775 8.1666,-2.08774 h 5.0834 5.0834 v -0.86309 -0.86309 l 6.4602,-0.51856 6.4602,-0.51856 4.5538,-2.66871 4.5538,-2.66871 0.9746,0.6023 0.9745,0.6023 -0.5955,-1.55194 -0.5956,-1.55194 h 2.107 2.107 v -3.39159 -3.39159 l 2.4647,-0.61861 2.4647,-0.6186 -0.5436,-1.41669 -0.5437,-1.4167 4.4802,-0.67184 4.4802,-0.67185 2.0987,0.66612 2.0988,0.66613 v -1.19462 -1.19462 l 4.9994,0.48038 4.9995,0.48038 1.0877,-1.3107 1.0878,-1.31071 2.9128,0.58255 2.9128,0.58256 v -1.125 -1.125 h 2.0599 2.0598 l 5.2868,-5 5.2867,-5 h 1.4252 1.4252 l 4.7242,-4.33731 4.7242,-4.33731 0.504,0.50398 0.504,0.50397 v -1.66666 -1.66667 h 0.9652 0.9652 l 3.4168,-3 3.4168,-3 h 1.4686 1.4685 l 4.3878,-5.49881 4.3879,-5.49881 5.0116,-1.6128 5.0116,-1.61281 9.0188,-8.88838 9.0188,-8.88839 h 3.3382 3.3382 l -0.5756,-1.5 -0.5756,-1.5 h 3.4426 3.4425 l 7.2761,-2.87623 7.276,-2.87624 10.7043,-2.24447 10.7042,-2.24447 1.7007,-1.8793 1.7008,-1.87929 h 2 2 l -1.7523,1.93626 -1.7523,1.93627 3.467,-1.06406 3.467,-1.06406 12.6303,0.72849 12.6303,0.72849 v 0.96669 0.9667 l 1.8947,-0.60136 1.8947,-0.60135 5.5683,2.46259 5.5684,2.46259 0.6336,2.5246 0.6336,2.5246 4.6534,0.67459 4.6533,0.6746 2,1.03356 2,1.03356 4.5644,3.83862 4.5643,3.83862 h 0.8327 0.8326 l 4.353,3.56695 4.353,3.56695 v 1.2301 1.2301 l 4.0462,3.95097 4.0461,3.95097 -0.539,2.14772 -0.5391,2.14772 1.4577,0.55938 1.4578,0.55938 3.6258,7.20006 3.6259,7.20007 -0.4372,2.97939 -0.4373,2.97939 2.8048,1.60972 2.8048,1.60973 0.4042,17.5057 0.4043,17.5057 1.6208,7.83186 1.6209,7.83187 -1.6239,3.14034 -1.624,3.14035 0.5905,24.02779 0.5905,24.02779 1.9606,7.28969 1.9606,7.28969 1.1717,1.41187 1.1718,1.41187 -1.2593,3.48261 -1.2594,3.4826 1.1353,1.36787 1.1352,1.36787 -0.5772,2.20738 -0.5773,2.20738 2.0945,4.86879 2.0945,4.86878 0.992,8.73003 0.9919,8.73002 1.1797,1.42139 1.1796,1.42139 -1.147,2.51744 -1.147,2.51744 v 2.37622 2.37622 l 2.5076,2.98006 2.5075,2.98005 0.9333,4.84667 0.9333,4.84667 1.5591,4.37573 1.5592,4.37572 v 0.93329 0.93329 l -1.0826,-0.66908 -1.0826,-0.66908 1.4622,2.86007 1.4622,2.86006 -0.8474,2.25 -0.8474,2.25 h 1.4488 1.4487 l 0.5756,2.75 0.5756,2.75 1.021,4 1.021,4 1.9146,7.5 1.9147,7.5 0.01,3.02749 0.01,3.0275 1.4565,2.0795 1.4566,2.0795 2.6842,10.71218 2.6842,10.71218 2.4213,1.58648 2.4213,1.58648 2.4379,4.8111 2.438,4.8111 0.011,4.78325 0.011,4.78324 0.6198,3.75 0.6199,3.75 h 1.8057 1.8056 l -1.2551,4.25 -1.2552,4.25 2.6581,6 2.6582,6 0.607,7.30598 0.607,7.30598 4.78,7.19402 4.78,7.19402 4.2472,8.5 4.2472,8.5 1.6042,7.14885 1.6042,7.14884 2.3133,2.17328 2.3133,2.17328 -1.4812,3.77096 -1.4813,3.77097 4.09,8.13471 4.0901,8.13472 v 2.02219 2.0222 h 1.5 1.5 v 1.62336 1.62336 l 4.5,7.41211 4.5,7.41211 v 3.84208 3.84209 l 1.5,1.24492 1.5,1.2449 v 3.33624 3.3363 l 5,10.6806 5,10.6806 v 1.6736 1.6736 l 3,2.8742 3,2.8742 v 1.6386 1.6386 l 2.4875,2.3369 2.4875,2.3369 -1.1399,1.3735 -1.14,1.3736 2.5331,2.7139 2.5331,2.7138 1.6875,7.75 1.6876,7.75 h 1.4318 1.4318 v 3.8521 3.8521 l 2.4627,3.3979 2.4626,3.3979 2.9633,5.5749 2.9634,5.5748 3.324,2.5596 3.324,2.5595 5.9745,12.8656 5.9744,12.8656 6.8307,9.2579 6.8306,9.258 1.2993,3.742 1.2993,3.7421 -1.4162,2.1688 -1.4161,2.1687 2.0393,3.9974 2.0393,3.9974 -3.4776,5.775 -3.4775,5.775 v 0.8089 0.8088 h -2.0674 -2.0674 l 0.6365,2.0054 0.6365,2.0054 -3.5691,5.8754 -3.5691,5.8754 v 1.2814 1.2813 l -2.526,4.3102 -2.526,4.3103 0.6321,2.5183 0.632,2.5183 -1.606,0.6163 -1.6061,0.6163 v 3.9426 3.9427 l -1.6099,3.1132 -1.6099,3.1132 -1.9195,5.5791 -1.9195,5.5791 1.5962,1.1671 1.5961,1.1671 -2.2011,4.3409 -2.2011,4.341 -1.0109,0.6488 -1.0109,0.6488 0.568,2.8512 0.568,2.8512 -1.4058,1.918 -1.4058,1.9179 1.0949,1.3193 1.095,1.3193 -0.6238,1.6255 -0.6238,1.6255 2.1173,3.4258 2.1172,3.4257 -1.0233,2.7115 -1.0233,2.7115 -0.5873,7.9632 -0.5873,7.9633 -3.7448,3.9057 -3.7447,3.9056 -8.5,4.0295 -8.5,4.0296 -4,1.1059 -4,1.106 -5.25,5.5922 -5.25,5.5922 v 5.5517 5.5517 l 9.7878,9.3517 9.7879,9.3517 2.2121,3.1544 2.2122,3.1543 v 4.4887 4.4886 l 1.3912,0.5339 1.3911,0.5338 0.8184,7.3232 0.8183,7.3231 -0.2963,3.3253 -0.2963,3.3254 1.7777,1.9643 1.7777,1.9644 0.4294,14.7103 0.4294,14.7103 1.4206,2.7794 1.4205,2.7793 -0.5193,0.8403 -0.5193,0.8403 2.1148,6.3803 2.1148,6.3804 1.3637,1.5787 1.3636,1.5788 v 2.6712 2.6713 h 1.2517 1.2517 l 2.3201,4.3735 2.3202,4.3734 -0.2389,6.8766 -0.2388,6.8765 1.667,3.8721 1.667,3.8721 v 3.8012 3.8011 l 2.5,2.9711 2.5,2.9711 v 2.5383 2.5382 l 2.0124,0.6387 2.0124,0.6388 2.456,3.6142 2.456,3.6143 -1.1329,1.365 -1.1328,1.365 2.1644,0.566 2.1645,0.5661 v 1.1622 1.1623 l 6.5,6.4422 6.5,6.4422 v 2.0827 2.0828 l 3.2976,3.1961 3.2976,3.1962 h 1.0334 1.0334 l 1.3123,2.452 1.3123,2.452 2.8567,0.548 2.8567,0.548 3.0477,0.5899 3.0477,0.59 1.1928,1.91 1.1929,1.9101 h 4.8664 4.8665 l -0.5756,-1.5 -0.5756,-1.5 h 2.0622 2.0622 l 0.5231,2 0.523,2 h 0.433 0.433 l 2.9504,-1.5257 2.9503,-1.5257 v -2.3138 -2.3138 l 2.3134,-1.054 2.3134,-1.0541 2.751,-9.1667 2.751,-9.1668 -0.6549,-5.2421 -0.655,-5.2421 1.4936,-1.2396 1.4936,-1.2396 -1.3528,-3.708 -1.3528,-3.708 -0.644,-7.8401 -0.644,-7.84 -2.0127,-1.66 -2.0127,-1.6599 -4.6708,-6.1048 -4.6707,-6.1049 0.9071,-11.3806 0.9071,-11.3806 6.359,-7.0145 6.3591,-7.0146 0.011,-1.75 0.011,-1.75 h 1.3942 1.3943 l 3.0752,-2.8727 3.0752,-2.8726 8.1904,-4.2612 8.1905,-4.2611 12.0901,-0.8235 12.0901,-0.8236 4.6792,-0.6267 4.6792,-0.6268 7.4064,1.1948 7.4064,1.1948 3.2288,-1.6697 3.2288,-1.6697 5.059,1.6804 5.0589,1.6803 7.9182,-0.4584 7.9181,-0.4584 0.8227,1.4701 0.8227,1.47 4.8858,-0.9223 4.8858,-0.9223 6.3992,2.8669 6.3992,2.8669 1.794,-0.4691 1.794,-0.4691 1.6507,1.824 1.6508,1.8241 1.2458,-0.478 1.2459,-0.4781 1.2826,1.5455 1.2827,1.5455 h 1.7136 1.7135 l 8.2015,7.1918 8.2015,7.1918 3.2125,1.2217 3.2125,1.2217 4.5,1.6864 4.5,1.6863 15.5,-0.6838 15.5,-0.6839 4.75,3.6298 4.75,3.6298 v 1.7992 1.7992 l 2,1.81 2,1.81 v 3.0474 3.0474 l 3.1962,3.2976 3.1961,3.2976 h -1.6961 -1.6962 v 2.4167 2.4166 l 1.1723,0.3908 1.1722,0.3907 0.4422,6.4426 0.4421,6.4426 1.2448,1.5 1.2448,1.5 2.0689,9.5 2.0689,9.5 0.7012,26 0.7011,26 -0.142,5.8991 -0.1421,5.8991 -1.7372,1.2686 -1.7372,1.2685 -0.714,10.3324 -0.7141,10.3323 -0.8695,8.5 -0.8696,8.5 -4.6096,10 -4.6096,10 -2.5568,4.9195 -2.5568,4.9195 2e-4,5.5805 2e-4,5.5805 -2.2502,6.4354 -2.2502,6.4353 -8.8762,9.323 -8.8763,9.323 -3.8737,0.6195 -3.8738,0.6194 v 1.3722 1.3722 h -2.345 -2.345 l -1.7223,1.9031 -1.7223,1.9032 -8.1827,2.4887 -8.1827,2.4887 -12,0.6135 -12,0.6135 -6.9245,1.3707 -6.9245,1.3707 -3.5755,-1.5017 -3.5755,-1.5017 -13.25,0.499 -13.25,0.4989 v -0.8733 -0.8733 h -6.6056 -6.6057 l -2.884,-2.4268 -2.8841,-2.4267 -5.4443,-0.6802 -5.4444,-0.6803 -0.4873,-1.2697 -0.4872,-1.2697 -11.8287,-2.1994 -11.8287,-2.1993 -5.2346,-3.424 -5.2346,-3.4239 h -2.5154 -2.5154 v -1.3291 -1.329 l -4.9251,-2.3068 -4.9252,-2.3069 -4.2831,-4.3641 -4.283,-4.3641 h -2.6115 -2.6114 l -2.0141,-2.3164 -2.014,-2.3163 -5.6663,-2.2998 -5.6663,-2.2998 v -1.3838 -1.3839 h -2 -2 v -1.5 -1.5 h -2 -2 v -1.5 -1.5 h -2.9566 -2.9566 l -9.2934,-9.5491 -9.2934,-9.5491 -2.7533,-5.9509 -2.7533,-5.9509 h -2.1037 -2.1037 l 0.5909,-1.5398 0.5909,-1.5398 -4.1113,-4.4602 -4.1112,-4.4602 h -3.3053 -3.3052 l -0.6348,-2 -0.6348,-2 h -1.4084 -1.4085 l -3.2741,-1.9963 -3.2742,-1.9962 h -2.643 -2.643 l -0.5756,-1.5 -0.5756,-1.5 h -3.0314 -3.0314 v -1.9221 -1.9221 l -4.0209,-3.4417 -4.0209,-3.4417 0.6095,-1.5883 0.6095,-1.5883 -0.7932,-1.2835 -0.7933,-1.2835 0.2619,-3.0397 0.2619,-3.0397 -1.5511,-2.9747 -1.5511,-2.9747 -0.01,-8.2814 -0.01,-8.2814 -1.5,-0.5756 -1.5,-0.5756 v -4.643 -4.643 l -1.7485,-3.5 -1.7484,-3.5 h -1.3893 -1.3894 l -1.3165,-5 -1.3165,-5 -0.044,-0.7078 -0.044,-0.7079 -4.5,-2.6372 -4.5,-2.6371 v -2.905 -2.905 h -1.0126 -1.0126 l -2.4324,-5.5 -2.4323,-5.5 h -1.1775 -1.1775 l 1.3725,-1.6626 1.3724,-1.6626 -1.5,0.53 -1.5,0.5301 -2.7491,-1.5825 -2.7491,-1.5826 0.5132,-1.6171 0.5133,-1.6171 -2.0142,-1.8228 -2.0141,-1.8228 v -4.2206 -4.2205 l -2.5,-5.653 -2.5,-5.6529 v -3.3994 -3.3993 l -2.4278,-9.0718 -2.4278,-9.0718 0.5621,-5.4464 0.5622,-5.4463 -2.5972,-3.0866 -2.5972,-3.0866 0.8528,-2.2431 0.8528,-2.2431 -1.8354,-4.8353 -1.8355,-4.8354 -1.5545,-1.7177 -1.5545,-1.7177 -0.01,-1.4212 -0.01,-1.4213 -2.4903,-5.3493 -2.4902,-5.3493 v -1.8873 -1.8873 l -3.4036,-1.4221 -3.4037,-1.4221 -0.6703,-2.1119 -0.6703,-2.1119 -5.176,-2.6066 -5.1761,-2.6065 -4.2277,-3.8729 -4.2276,-3.8728 h -3.8674 -3.8673 l -1.7441,-1.9271 -1.744,-1.9272 -3.924,-0.6629 -3.924,-0.663 -1.0396,-1.9426 -1.0397,-1.9427 -8.4473,-3.9026 -8.4473,-3.9027 v -1.5477 -1.5478 l -4.9668,-2.5169 -4.9667,-2.5168 h -1.1245 -1.1245 l -6.6262,-5.5 -6.6261,-5.5 h -2.1602 -2.1601 l -1.3154,-1.5849 -1.3153,-1.5849 -11.0571,0.2847 -11.0571,0.2847 -3.25,-0.8248 -3.25,-0.8248 v 1.4821 1.4821 l -8.0393,0.551 -8.0393,0.5511 -6.4607,4.2093 -6.4607,4.2093 v 1.9139 1.914 l -1.3965,0.5359 -1.3966,0.5359 -0.6546,4.365 -0.6546,4.3651 2.5991,5.129 2.599,5.129 -0.5654,1.7814 -0.5654,1.7814 2.5502,4.5628 2.5502,4.5628 1.4673,0.5631 1.4673,0.563 v 2.148 2.1481 l 1.8999,-0.4969 1.8998,-0.4968 5.4573,5.6302 5.4572,5.6302 2.6429,7.3072 2.6429,7.3072 v 2.4428 2.4428 h -1.5 -1.5 v 1.9574 1.9573 l -3.7403,2.7927 -3.7404,2.7926 -7.2596,7.0726 -7.2597,7.0726 v 2.5031 2.5032 l -4.4264,5.9171 -4.4265,5.9171 0.4991,2.5071 0.499,2.5072 -2.4559,5.2948 -2.4559,5.2949 1.5855,5.9175 1.5855,5.9175 -1.2618,12.7211 -1.2619,12.721 -1.4302,1.0666 -1.4302,1.0666 -1.0816,6.5 -1.0816,6.5 -0.3197,4.5 -0.3197,4.5 -1.188,6.444 -1.1881,6.444 -1.3574,1.938 -1.3574,1.9379 1.4846,2.2658 1.4846,2.2658 -0.6774,5.3522 -0.6775,5.3523 -1.5255,1.75 -1.5256,1.75 h 1.655 1.655 v 0.9304 0.9305 l -2.1827,0.3195 -2.1827,0.3196 -0.758,2.8515 -0.7579,2.8516 1.8753,6.0256 1.8754,6.0256 2.7268,2.8461 2.7268,2.8461 5.0885,1.6701 5.0885,1.6701 3.75,2.9407 3.75,2.9407 v 6.0082 6.0082 l -2,2.5426 -2,2.5426 v 2.3623 2.3622 l -3.5,3.8741 -3.5,3.8741 v 11.5064 11.5063 l -1.5,1.2449 -1.5,1.2449 v 2.6693 2.6694 l -4.5,4.4164 -4.5,4.4164 v 1.1175 1.1175 l -2.5,2.3486 -2.5,2.3486 v 2.7423 2.7423 l -2.5573,1.8629 -2.5574,1.8629 1.0498,6.4705 1.0498,6.4705 0.01,6.7587 0.01,6.7586 -3,4.1414 -3,4.1414 v 1.8851 1.8852 l -1.568,2.393 -1.5679,2.393 0.5221,10.3218 0.522,10.3218 0.093,2.6657 0.093,2.6657 2.4532,1.6074 2.4531,1.6073 v 3.0266 3.0266 l 1.6443,3.1797 1.6443,3.1798 -1.7125,8.5206 -1.7125,8.5206 2.6366,6.9546 2.6367,6.9547 0.8289,4.4371 0.8289,4.4371 -1.8973,5.5148 -1.8974,5.5148 v 1.4905 1.4904 l -3.5,4.2713 -3.5,4.2713 v 2.4747 2.4747 l 1.6498,0.6331 1.6498,0.6331 -2.3894,2.5434 -2.3895,2.5435 0.3307,6.4304 0.3307,6.4305 h -1.591 -1.5911 v 2.0314 2.0314 l -1.5,0.5756 -1.5,0.5756 v 1.4215 1.4215 l -3.1397,6.2197 -3.1397,6.2198 -0.4961,8.7008 -0.4961,8.7007 4.2289,5.051 4.2289,5.051 h 1.8684 1.8683 l 1.1181,4.25 1.1181,4.25 5.0392,5.1517 5.0391,5.1516 3.7905,1.7093 3.7905,1.7093 1.0165,4.139 1.0165,4.1391 -1.3902,9 -1.3903,9 -0.035,0.7186 -0.035,0.7186 -1.5,-0.5756 -1.5,-0.5756 v 1.6993 1.6992 l -2,2.5426 -2,2.5426 v 2.8965 2.8966 l -1.5,0.5756 -1.5,0.5756 v 2.1774 2.1774 l -3,1.7721 -3,1.7722 v 2.4434 2.4435 h -2 -2 v 4 4 h -2.5 -2.5 v 1.5 1.5 h 1.507 1.507 l -0.6552,7.0495 -0.6552,7.0495 3.3982,3.5414 3.3982,3.5414 5.0593,-0.5772 5.0593,-0.5772 3.9407,-1.3644 3.9407,-1.3643 v -1.3993 -1.3994 l 6.3488,-0.8504 6.3488,-0.8505 3.1988,3.1005 3.1988,3.1004 h 1.8094 1.8094 l -0.5493,1.4313 -0.5492,1.4313 -0.7017,8.6477 -0.7017,8.6477 -1.7226,-0.4505 -1.7227,-0.4505 -3.1334,5.1701 -3.1334,5.1701 v 1.188 1.188 l -3.715,1.5522 -3.7149,1.5522 -0.7697,1.2112 -0.7698,1.2112 -0.029,3 -0.029,3 -0.603,2.25 -0.603,2.25 h -2.2542 -2.2542 l -0.6905,6.25 -0.6906,6.25 -2.616,3.8098 -2.616,3.8097 -1.6907,0.9049 -1.6907,0.9048 0.4422,2.3133 0.4423,2.3134 -2.0742,1.877 -2.0741,1.8771 v 2.738 2.738 l -1.5,0.5756 -1.5,0.5756 v 3.0666 3.0666 l -1.3916,2.2148 -1.3916,2.2148 -0.6697,4.75 -0.6696,4.75 h -0.9743 -0.9743 l -2.157,4.75 -2.157,4.75 -0.047,12.2101 -0.047,12.21 1.24,1.24 1.2399,1.2399 v 2.7111 2.7111 l 3.0767,2.5889 3.0768,2.5889 -1.8268,0.052 -1.8267,0.052 2.25,1.5695 2.25,1.5695 v 2.5493 2.5493 l 1.4419,1.5933 1.4419,1.5933 0.069,6.9854 0.069,6.9855 -0.761,14 -0.7611,14 -1.1161,2 -1.1161,2 -0.5221,6.0626 -0.5221,6.0625 -2.6118,5.1542 -2.6118,5.1542 v 1.9518 1.9517 l -3.5,7.3033 -3.5,7.3033 v 4.2782 4.2782 h 1.4752 1.4753 l -0.9852,2.5914 -0.9853,2.5914 6.1551,7.1337 6.1551,7.1337 1.3549,3.2428 1.3549,3.2428 -0.06,4.7821 -0.06,4.7821 -0.802,4.8828 -0.802,4.8828 -1.5558,0.8706 -1.5557,0.8707 -3.5827,4.8805 -3.5826,4.8806 v 3.116 3.116 l -0.75,0.01 h -0.75 l -2.8882,2.3112 -2.8883,2.3111 1.1539,3.4962 1.1538,3.4962 3.9147,3.8226 3.9147,3.8225 2.2135,-0.5788 2.2135,-0.5789 4.8562,2.4609 4.8562,2.4608 v 1.023 1.023 l -2.0718,4.0611 -2.0718,4.0611 -0.9374,6.149 -0.9373,6.1491 -0.5099,2.25 -0.5099,2.25 h -1.481 -1.4809 v 1.8836 1.8837 l -4,3.6137 -4,3.6138 v 3.034 3.034 l -1.5,0.5756 -1.5,0.5756 v 3.393 3.393 h -1.5 -1.5 v 2.5352 2.5352 l -2.0319,-1.0875 -2.0319,-1.0874 -2.4555,5.5522 -2.4555,5.5523 h -1.3165 -1.3166 l -5.1557,6.7817 -5.1557,6.7817 -2.0397,4.611 -2.0397,4.6111 -1.5007,0.5759 -1.5006,0.5758 v 2.3443 2.3443 l -2.9216,2.799 -2.9215,2.7991 -0.6933,5.0408 -0.6933,5.0408 -1.4154,3.3876 -1.4154,3.3875 -0.9698,-0.5993 -0.9697,-0.5993 v 2.059 2.059 h -1 -1 v 2.3395 2.3395 l -2.5,1.139 -2.5,1.1391 -0.042,3.2715 -0.042,3.2714 -1.8588,3.4917 -1.8588,3.4917 1.4615,2.8261 1.4614,2.8261 -3.3108,5.1678 -3.3107,5.1677 0.2283,18.9269 0.2282,18.9268 2.1868,2.3277 2.1867,2.3277 -1.0164,2.2599 -1.0164,2.2599 1.2753,3.5 1.2753,3.5 0.076,2.1276 0.076,2.1275 -1.5,1.2449 -1.5,1.2449 v 4.9422 4.9421 l -2.1334,4.9593 -2.1334,4.9592 1.7884,1.9761 1.7884,1.9762 h -1.655 -1.655 v 3.3776 3.3775 l -1.6303,1.3531 -1.6304,1.353 -3.2064,7.0361 -3.2065,7.0361 -5.8254,6.2922 -5.8254,6.2921 -4.3378,7.6119 -4.3378,7.6118 v 1.2567 1.2567 l -2.4529,1.9295 -2.4528,1.9294 -4.4763,1.2533 -4.4763,1.2532 -2.2452,2.3899 -2.2451,2.3899 h -2.1514 -2.1514 l -2.2381,2.3824 -2.2382,2.3824 -2.3912,5.8676 -2.3912,5.8676 -1.8166,-0.2742 -1.8166,-0.2741 -1.1415,3.0241 -1.1415,3.0242 h -2.4318 -2.4319 l -1.7195,1.9 -1.7195,1.9001 -8.6033,0.3533 -8.6033,0.3533 -0.4155,1.2467 -0.4156,1.2466 -0.6666,-0.032 -0.6667,-0.032 -1.9411,-1.4682 z m -560.09292,-213.5745 10.034,-2.1063 2.2148,-1.3937 2.2148,-1.3937 h 1.0352 1.0352 v 1.3268 1.3268 l 3,-0.4403 3,-0.4403 v -1.2573 -1.2573 l 6.809,-0.6709 6.8089,-0.671 9.4411,-2.9471 9.441,-2.9471 15.2852,-0.011 15.2852,-0.011 2.2148,-1.4048 2.2148,-1.4049 5.2662,-0.6912 5.2663,-0.6912 0.9754,-1.8227 0.9755,-1.8226 2.7583,-0.5801 2.7583,-0.5801 11.813,-1.0108 11.81307,-1.0108 5.64975,-3.6141 5.64974,-3.6141 4.03722,-0.5374 4.03721,-0.5374 2.5,-1.7777 2.5,-1.7777 4.47273,-1.1597 4.47272,-1.1597 2.82932,-2.3807 2.82931,-2.3808 5.70894,0.5967 5.70895,0.5967 4.55314,-2.1402 4.55314,-2.1402 4.14139,-4.2273 4.14139,-4.2272 2.93634,-5.3784 2.93635,-5.3784 0.67553,2.1284 0.67553,2.1284 h 0.7101 0.71011 l 2.13819,-1.4977 2.1382,-1.4976 4.00405,-5.9961 4.00405,-5.9961 0.66796,-6.7563 0.66796,-6.7562 0.97625,-4 0.97626,-4 3.59824,-8.4853 3.59823,-8.4854 0.64494,-13.5146 0.64494,-13.5147 -0.8083,-4.4179 -0.8083,-4.418 -4.55161,-7.3027 -4.55161,-7.3028 -3.67506,-3.0293 -3.67507,-3.0293 h 1.89911 1.8991 l 1.82874,-1.655 1.82874,-1.655 v -0.845 -0.845 h -1.5 -1.5 l -0.01,-3.25 -0.01,-3.25 -2.36375,-5 -2.36375,-5 -3.12648,-2.9371 -3.12648,-2.9371 v -1.975 -1.9751 l -2.54215,-4.3378 -2.54216,-4.3379 h -1.66024 -1.66024 l -3.2976,-3.1962 -3.29761,-3.1961 v -1.7687 -1.7686 l -2.09514,-1.1213 -2.09514,-1.1213 0.64059,-3.4146 0.64059,-3.4147 -2.37856,-1.0837 -2.37857,-1.0838 -2.67194,-5.448 -2.67195,-5.4479 -1.99494,1.0676 -1.99494,1.0677 v -1.6157 -1.6156 l -4.05216,-1.5917 -4.05216,-1.5918 -2.52046,-5.3278 -2.52046,-5.3278 h -1.82956 -1.82955 l -0.96311,-2.75 -0.96311,-2.75 -4.52581,-5.0258 -4.5258,-5.0258 -0.97409,-3.5279 -0.97409,-3.5278 -3.38482,-4.6385 -3.38482,-4.6386 -1.99934,-0.7043 -1.99934,-0.7044 -3.14596,-3.4345 -3.14596,-3.4346 -4.02493,-0.5399 -4.0249,-0.5398 -2.9818,-6.6689 -2.9819,-6.6688 -3.3564,-1.8075 -3.3564,-1.8076 -3.9009,-6.4857 -3.901,-6.4858 -5.2308,-2.3133 -5.2309,-2.3134 -3.3597,-0.7268 -3.3598,-0.7267 -5,-2.4887 -5,-2.4886 -3.3176,-2.4907 -3.3177,-2.4906 0.4944,-1.2883 0.4944,-1.2884 -1.2868,-4.358 -1.2867,-4.3579 1.5385,-2.3481 1.5385,-2.3481 -2.3091,-11.9846 -2.3091,-11.9846 -1.2589,-0.4831 -1.2588,-0.4831 0.4715,-1.8031 0.4715,-1.8032 -3.332,-2.0633 -3.3321,-2.0633 -1.7911,-5.069 -1.7911,-5.0689 h -1.8256 -1.8255 l -2.0779,-5 -2.0779,-5 h -1.5554 -1.5555 v -1.5097 -1.5096 l -5.5,-7.4371 -5.5,-7.4371 v -0.959 -0.959 l -4.602,-3.0483 -4.602,-3.0483 -4.3349,-0.65 -4.3348,-0.6501 -5.5416,3.8541 -5.5416,3.8541 0.5185,1.6639 0.5186,1.6639 -3.2861,4.6621 -3.2861,4.662 -0.3549,8.174 -0.3549,8.1741 -1.5176,1.7097 -1.5176,1.7097 0.5793,2.2903 0.5793,2.2903 4.1737,6.5 4.1737,6.5 2.0398,2.25 2.0399,2.25 h 1.8256 1.8257 v 2.5 2.5 h 2 2 l 0.012,1.75 0.012,1.75 3.4877,2.2592 3.4876,2.2592 v 1.6763 1.6764 l 2.1743,2.3144 2.1743,2.3145 h 0.8963 0.8963 l 4.9294,4.1565 4.9294,4.1566 v 1.1405 1.1405 l 4,3.9059 4,3.9059 v 1.297 1.2971 h 1.8195 1.8195 l 1.4305,3.1035 1.4305,3.1036 6.4311,2.8044 6.431,2.8045 1.8429,3.592 1.8428,3.592 h 1.8648 1.8648 l 0.6566,3.5 0.6566,3.5 h 1.4547 1.4547 v 3.4769 3.477 l 2.5,1.6381 2.5,1.638 v 2.2626 2.2625 l 1.6655,1.3725 1.6656,1.3724 3.444,5.3733 3.444,5.3732 -1.2553,0.7758 -1.2553,0.7759 0.6408,1.6698 0.6408,1.6699 2.0049,-0.6363 2.005,-0.6364 v 1.8712 1.8713 l 3.4222,3.3169 3.4223,3.317 -0.4317,1.1292 -0.4317,1.1292 4.491,3.5 4.491,3.5 0.6488,3.766 0.6488,3.7661 4.7584,3.9839 4.7584,3.984 h 1.1786 1.1787 l -0.6348,2 -0.6348,2 h 2.0322 2.0322 l 1.1849,2.25 1.1849,2.25 1.1003,0.7347 1.1003,0.7347 2.14298,0.015 2.14301,0.015 0.57561,1.5 0.5756,1.5 h 3.50833 3.50833 l 1.5681,2.3932 1.56809,2.3932 4.20496,0.6603 4.20496,0.6604 9,7.9284 9,7.9285 1.25,0.018 1.25,0.018 v 2.059 2.059 l 1.08126,-0.6682 1.08126,-0.6683 2.91874,2.7964 2.91874,2.7963 v 2.3291 2.3291 l 3.5,1.669 3.5,1.669 v 2.8148 2.8148 h 1.47207 1.47206 l 1.61807,5.566 1.61808,5.5659 1.40986,0.5411 1.40986,0.541 v 1.9144 1.9145 l 2.4484,1.1155 2.44841,1.1156 0.32533,2.113 0.32534,2.113 1.22626,-0.25 1.22668,-0.2497 0.0234,3.25 0.0234,3.25 2.9094,5 2.9094,5 1.84815,3.5 1.84814,3.5 -0.35991,7.75 -0.35991,7.75 h -1.21268 -1.21267 l -2.71436,5.5345 -2.71435,5.5344 -2.22117,0.8217 -2.22117,0.8216 -0.0228,2.3939 -0.0228,2.3939 -2.15269,0.3068 -2.15268,0.3068 -7.98198,6.9427 -7.98198,6.9427 -1.65927,2.5324 -1.65926,2.5323 -0.99988,-0.6179 -0.99987,-0.618 -1.45529,1.2078 -1.45529,1.2078 -2.99867,-1.2421 -2.99867,-1.2421 -3.25223,2.4652 -3.25224,2.4651 -4.49844,0.5934 -4.49843,0.5934 -2.2036,2.5619 -2.2036,2.5618 h -2.57935 -2.57935 l -0.59217,-1.5432 -0.59217,-1.5431 -1.79883,1.6279 -1.79883,1.6279 -4.10028,0.55 -4.10031,0.5499 -3.0613,3.8653 -3.0614,3.8653 h -2.166 -2.1659 l -6.25,2.6528 -6.25,2.6529 v 0.8813 0.8814 l -3.25,-0.2013 -3.25,-0.2013 -4.2025,2.166 -4.2025,2.1661 -1.0171,-1.7461 -1.0171,-1.7461 -0.03,1.155 -0.03,1.155 -4.6093,2.7012 -4.6092,2.7011 -26.3908,-0.3561 -26.3908,-0.3562 6e-4,0.5 6e-4,0.5 -40.6307,-0.3123 -40.6308,-0.3122 -2.1198,-1.3442 -2.1198,-1.3441 -16,-2.7663 -16,-2.7664 -2.5,-2.2242 -2.5,-2.2243 -4.25,-0.6909 -4.25,-0.6909 v -1.4121 -1.4121 h -3.5399 -3.5398 l -3.7336,-1.9048 -3.7337,-1.9047 -4.9765,-0.712 -4.9765,-0.712 -2.662,-2.486 -2.662,-2.486 -3.838,0.6473 -3.838,0.6474 -2,-1.5128 -2,-1.5128 -3.5,0.068 -3.5,0.068 -2.4899,0.693 -2.49,0.693 1.2438,0.7687 1.2437,0.7686 -3.0038,2.5276 -3.0038,2.5275 v 2.733 2.7329 l 1.635,4.9282 1.635,4.9281 1.865,2.0645 1.865,2.0644 v 3.1265 3.1266 l 0.9422,0.5823 0.9422,0.5823 0.6698,4.7267 0.6698,4.7267 3.7377,4 3.7376,4 2.6186,3.5528 2.6187,3.5528 5.2817,1.405 5.2817,1.4049 3.2941,-0.2106 3.2941,-0.2106 3.0842,1.5949 3.0843,1.5949 2.5983,-0.4967 2.5984,-0.4967 3.5941,1.8335 3.594,1.8336 4.0064,-0.5374 4.0064,-0.5374 3.9229,1.9887 3.9228,1.9886 4.5,0.7256 4.5,0.7256 3.0814,1.8716 3.0813,1.8716 7.1933,0.6685 7.1932,0.6686 -0.6477,-1.8959 -0.6476,-1.8959 1.6797,2.25 1.6798,2.25 2.6933,0.032 2.6933,0.032 1.9411,1.4682 1.9411,1.4682 h 3.1089 3.1089 l 0.95,-0.8712 0.95,-0.8713 6.1756,-0.6056 6.1756,-0.6057 0.6513,2.9654 0.6514,2.9655 0.923,0.5704 0.9231,0.5705 0.032,-2.309 0.032,-2.309 1.3169,1.7342 1.3168,1.7342 3.9014,0.9153 3.9013,0.9154 0.966,0.1004 0.9659,0.1005 10.0341,-2.1063 z m 180.26732,-47.0178 1.23334,-1.2426 0.55979,0.5598 0.5598,0.5598 -1.79313,0.6828 -1.79313,0.6828 z m 549.2667,-114.8759 v -1 h -1 -1 v 1 1 h 1 1 z m -35.2923,-939.1077 1.1078,-1.1078 6.8422,-0.5412 6.8423,-0.5413 6.25,-5.4731 6.25,-5.4731 v -1.7709 -1.7709 l 1.5,-0.5756 1.5,-0.5756 v -5.3403 -5.3402 l -1.3357,-1.8268 -1.3358,-1.8267 -6.4142,-1.4533 -6.4143,-1.4532 -24.7404,-0.5324 -24.7405,-0.5325 -2.4744,1.6213 -2.4743,1.6213 h -1.2065 -1.2064 l -1.5788,1.3961 -1.5787,1.396 -9.5,0.2524 -9.5,0.2523 -1.75,-0.1484 -1.75,-0.1484 v -2.1166 -2.1167 l -1.9432,0.5082 -1.9432,0.5081 -1.7118,-1.8915 -1.7118,-1.8915 h -2.845 -2.845 v -0.8314 -0.8315 l -36.75,0.4501 -36.75,0.45 -1.2862,1.0338 -1.2861,1.0339 -2.7139,-2.5401 -2.7138,-2.5401 -2.3748,-0.7194 -2.3749,-0.7193 -0.7563,1.2238 -0.7564,1.2237 -3.3688,-1.0748 -3.3688,-1.0749 -21.6029,-0.6843 -21.603,-0.6844 -0.7161,1.1588 -0.7162,1.1587 -0.9747,-0.6024 -0.9747,-0.6024 -1.4452,1.1995 -1.4453,1.1994 -3.6254,-0.6801 -3.6254,-0.6802 -2.1962,2.0632 -2.1961,2.0632 -3.232,-2.3845 -3.2319,-2.3844 -6.2075,-0.6293 -6.2074,-0.6293 -12,-0.1003 -12,-0.1003 -6.8711,1.6676 -6.8712,1.6676 -12.08991,-0.1668 -12.08993,-0.1668 -0.34377,1.0313 -0.34377,1.0313 -3.07332,-0.8814 -3.07332,-0.8814 -2.06547,1.4467 -2.06548,1.4467 -1.55638,-1.3751 -1.55638,-1.3752 -7.5,-1.5507 -7.5,-1.5506 -9.5,-0.6337 -9.5,-0.6336 -4.86488,-1.0278 -4.86487,-1.0278 -2.13513,1.1343 -2.13512,1.1344 -6.5,-0.9299 -6.5,-0.9298 -2.19676,1.3911 -2.19676,1.3912 -4.55324,-0.6241 -4.55324,-0.624 v -0.8641 -0.8641 h -3.19625 -3.19625 l -3.55375,-2.4276 -3.55375,-2.4277 -5.6601,-1.0218 -5.6601,-1.0218 -17.31678,-8.6697 -17.31679,-8.6697 -1.12851,-1.5433 -1.1285,-1.5434 -1.78477,0.6849 -1.78477,0.6849 -1.41654,-2.0224 -1.41655,-2.0224 h -2.36891 -2.3689 l -8.27149,-4 -8.2715,-4 h -2.18045 -2.18045 l -1.17817,-1.4196 -1.17817,-1.4196 -4.94428,-1.778 -4.94427,-1.7779 v -1.3024 -1.3025 h -3.03984 -3.03984 l -3.71016,-1.8732 -3.71016,-1.8732 -6,-1.6948 -6,-1.6948 -1.07174,-1.3793 -1.07173,-1.3794 -5.92827,-2.1722 -5.92826,-2.1723 -3.5,-3.3335 -3.5,-3.3335 -7.68449,-3.5469 -7.6844,-3.5469 h -2.1592 -2.1591 l -0.5231,-2 -0.523,-2 h -2.3058 -2.3058 l -1.1551,-3.5 -1.1551,-3.5 h -2.4225 -2.4224 v -1.7688 -1.7687 l -9.75,-9.6931 -9.75,-9.693 -4,0.9129 -4,0.913 -2.1774,-1.4267 -2.1774,-1.4266 -4.1133,4.9129 -4.1132,4.9128 0.6801,9.0091 0.6801,9.0092 2.8605,2.7406 2.8606,2.7406 v 1.0971 1.097 l 5.5,5.4317 5.5,5.4317 v 2.1675 2.1675 l 2,0.523 2,0.5231 v 2.0936 2.0936 h 2 2 v 0.8554 0.8554 l 6.0886,6.6446 6.0886,6.6446 h 2.3431 2.343 l 4.6362,4.8966 4.6361,4.8966 4.3299,0.6494 4.3299,0.6493 1.2395,2.9922 1.2394,2.9923 1.6128,0.812 1.61289,0.812 12,1.2542 12,1.2543 2.90364,1.3955 2.90364,1.3956 h 1.42806 1.42807 l 4.37161,3.5822 4.37161,3.5822 1.86364,-0.5915 1.86364,-0.5915 2.35736,2.5093 2.35736,2.5093 h 1.85893 1.85893 l 4.93351,2.5 4.93351,2.5 h 6.4108 6.4108 l 1.34329,1.6186 1.34329,1.6185 6.77916,-0.485 6.77915,-0.4851 v 1.2687 1.2686 l 3.07501,1.072 3.075,1.072 -0.61097,0.9885 -0.61097,0.9886 5.28596,-0.01 5.28597,-0.01 3,0.8805 3,0.8804 2.16506,-1.3973 2.16507,-1.3973 5.01647,3.604 5.01648,3.6039 0.36958,1.1088 0.36958,1.1087 2.85055,-1.8677 2.85055,-1.8678 1.4703,2.2144 1.4703,2.2144 h 5.79513 5.79512 l 4.7218,2.024 4.7218,2.024 2.15324,-1.4109 2.15324,-1.4108 2.70787,1.4188 2.70786,1.4188 v 1.468 1.4681 h 3 3 v 1.4147 1.4147 l 7.75,0.6279 7.75,0.628 4.40297,2.0186 4.40296,2.0187 1.4707,-1.4707 1.47069,-1.4707 5.12634,1.4416 5.12634,1.4416 2.65429,1.4678 2.65429,1.4678 h 2.98872 2.98872 l 0.57561,1.5 0.5756,1.5 h 6.90941 6.90942 l 1.5326,2.25 1.5326,2.25 1.7606,-1.707 1.76061,-1.7069 1.07877,1.3595 1.07876,1.3595 11.5,-1.4942 11.50003,-1.4942 17.1538,0.5636 17.1537,0.5636 0.5649,-1.4719 0.5648,-1.472 h 11.9481 11.948 l 0.4409,1.25 0.4409,1.25 2.9738,-1.7069 2.9737,-1.7069 3.6157,2.4569 3.6156,2.4569 h 2.994 2.9941 l 0.676,1.0938 0.676,1.0939 17.1221,-0.7319 17.122,-0.7318 4.3439,-1.862 4.3438,-1.862 h 9.4668 9.4667 l 2.7004,-1.3912 2.7003,-1.3912 8.7134,-0.3588 8.7134,-0.3588 0.2866,2 0.2866,2 8.5,-0.3213 8.5,-0.3214 5.1672,-3.9864 5.1673,-3.9864 3.6369,-1.0042 3.637,-1.0042 6.4802,3.5619 6.4802,3.562 3.7156,-0.015 3.7156,-0.015 4.5,-1.3437 4.5,-1.3437 0.3003,-1.5213 0.3002,-1.5214 3.9674,-0.6344 3.9673,-0.6344 2.7324,0.6571 2.7324,0.6572 5.1901,4.8575 5.1902,4.8575 3.3098,0.032 3.3099,0.032 1.918,1.4513 1.9179,1.4512 1.3731,-1.1395 1.373,-1.1396 9.9267,1.2651 9.9266,1.265 1.1548,1.3915 1.1548,1.3914 h 1.6775 1.6776 l 1.1077,-1.1077 z m -294.7077,-41.3333 v -0.441 l -0.9309,-0.5753 -0.9309,-0.5753 -0.6281,1.0163 -0.6282,1.0163 h 1.5591 1.559 z m 483,-134.059 v -1.5 h 2.8089 2.8088 l 1.6565,-1.25 1.6564,-1.25 3.6037,-8 3.6038,-8 4.1392,-4.25 4.1391,-4.25 h 1.7566 1.7566 l 1.0222,-1.9099 1.0221,-1.9099 4.0495,-0.6841 4.0494,-0.6842 1.7175,-3.656 1.7175,-3.6559 2.3226,-0.3296 2.3225,-0.3295 -0.7171,-1.6705 -0.7171,-1.6704 -0.127,-2 -0.127,-2 -1.0647,-1.8261 -1.0646,-1.826 -7.8214,-0.9711 -7.8213,-0.971 -3.8666,1.5471 -3.8666,1.5471 h -3.2329 -3.233 l -6.7089,1.9186 -6.709,1.9186 -4.5379,3.7932 -4.5378,3.7931 v 1.6333 1.6332 l -2,1.81 -2,1.81 v 11.1044 11.1045 l 2,1.249 2,1.249 v 2.4349 2.4348 l 4.25,2.5473 4.25,2.5472 0.75,0.01 0.75,0.01 v -1.5 z m 75,-40.2378 6.5,-0.4465 1.0496,-0.864 1.0496,-0.864 4.1241,-0.6594 4.124,-0.6595 2.6996,-2.8178 2.6997,-2.8178 -0.452,-3.0796 -0.452,-3.0797 1.8287,0.5805 1.8287,0.5804 v -1.3803 -1.3803 l -3,-2.8742 -3,-2.8742 v -2.0153 -2.0153 l -3.1006,-3.1989 -3.1005,-3.199 -2.8995,0.8315 -2.8994,0.8316 v -1.3673 -1.3674 l -3.75,0.5653 -3.75,0.5652 -6.9965,2.3971 -6.9964,2.3971 -5.7536,5.6935 -5.7535,5.6935 v 2.1995 2.1995 l 0.6048,1.5761 0.6048,1.576 0.8952,-0.5533 0.8952,-0.5532 v 1.3628 1.3629 l 3.25,3.0795 3.25,3.0796 3,1.6029 3,1.603 2,-0.6319 2,-0.632 z M 557.87158,898.48945 l 6.5235,-3.21691 -0.6159,-3.28309 -0.6159,-3.28309 h 1.1113 1.1113 v -14.03324 -14.03325 l -2.5131,-4.95935 -2.5131,-4.95936 1.21,-1.93756 1.2101,-1.93756 -1.2774,-10.45195 -1.2774,-10.45194 1.9392,-3.86789 1.9392,-3.8679 0.6484,-6.5 0.6485,-6.5 7.1204,-14 7.1203,-14 1.6945,-1.5 1.6945,-1.5 3.8056,-8.5 3.8056,-8.5 2.3723,-2.82673 2.3724,-2.82672 v -5.90022 -5.90022 l 2.5,-1.63807 2.5,-1.63806 v -1.94785 -1.94785 l 2.1766,0.31286 2.1766,0.31286 0.8891,-3.5 0.889,-3.5 12.6699,-12.75 12.6699,-12.75 h 1.2895 1.2894 l 0.6097,-3.04838 0.6096,-3.04839 3.7927,-1.93484 3.7926,-1.93485 0.6401,-2.01677 0.6401,-2.01677 h 1.9916 1.9916 l -0.5159,-0.83477 -0.5159,-0.83476 6.8861,-6.16524 6.886,-6.16523 1.3208,-0.0124 1.3209,-0.0124 2.2592,-3.48762 2.2592,-3.48762 h 2.4437 2.4436 l 3.2145,-4 3.2145,-4 h 1.7257 1.7256 l 0.4954,-1.29084 0.4953,-1.29083 7.6505,-1.8036 7.6504,-1.8036 1.5762,-2.40557 1.5762,-2.40556 1.635,0.0153 1.635,0.0153 -1.471,0.93031 -1.4711,0.93031 0.6186,0.61856 0.6185,0.61855 7.2944,-3.67339 7.2944,-3.67339 12.5581,0.70873 12.55809,0.70874 1.5,1.30836 1.5,1.30836 10,1.23731 10,1.23731 5.22959,2.93874 5.22959,2.93875 2.89876,-0.63668 2.89877,-0.63668 0.65817,2.62238 0.65818,2.62237 6.54581,3.06315 6.54581,3.06316 0.52465,1.36721 0.52465,1.36721 h 2.34212 2.34212 l 2.66958,3.5 2.66958,3.5 h 2.19058 2.19059 l 4.74835,5.5 4.74836,5.5 h 1.75716 1.75716 l 1.66903,3.5 1.66903,3.5 h 1.82812 1.82812 l 2.21884,3.00114 2.21885,3.00115 6.21921,3.11705 6.21922,3.11705 1.78896,1.88181 1.78895,1.8818 h 3.46105 3.46104 l 0.0269,1.25 0.0269,1.25 6.22311,2.71592 6.22312,2.71591 7.25,0.6633 7.25,0.66329 v 1.33635 1.33634 l 5.13186,0.68077 5.13185,0.68076 3.28831,2.88718 3.28831,2.88717 4.57983,1.56051 4.57984,1.5605 v 1.906 1.906 h 2.26787 2.26786 l 3.98214,2.70712 3.98213,2.70711 6,0.19363 6,0.19364 15,2.13477 15,2.13478 6,-0.60138 6,-0.60138 2.25224,-1.45867 2.25224,-1.45866 2.98547,1.54384 2.98547,1.54385 5.26229,-0.10205 5.26229,-0.10205 3.5921,0.6737 3.5922,0.6737 7.6578,-6.70541 7.6579,-6.70541 v -5.05682 -5.05683 l -1.655,-1.82874 -1.655,-1.82874 h -2.6225 -2.6225 l -2.3295,-1.63165 -2.3295,-1.63165 -8.893,-0.50706 -8.893,-0.50705 -0.0153,-1.1113 -0.0153,-1.11129 -0.93252,1.47461 -0.93252,1.47461 -4.39748,-2.13646 -4.39748,-2.13646 -0.09,-3.16493 -0.09,-3.16494 -1.58775,-2.42321 -1.58776,-2.42322 h -4.04268 -4.04269 l -1.97328,1.05606 -1.97327,1.05607 -3.03806,-2.55636 -3.03805,-2.55635 -2.17293,-0.44096 -2.17293,-0.44095 -4.96054,-0.45965 -4.96054,-0.45965 -1.53946,-1.84952 -1.53946,-1.84951 -3,-1.93508 -3,-1.93507 -1.82258,-2.31451 -1.82258,-2.31452 h -3.74033 -3.74033 l -2.93709,-3.1323 -2.93709,-3.13231 -7.17516,-3.30834 -7.17516,-3.30834 -3.70389,-0.69486 -3.7039,-0.69485 -0.49827,-1.90539 -0.49827,-1.90539 -1.12267,0.38757 -1.12268,0.38758 -5.08717,-1.7368 -5.08717,-1.7368 -3.41283,-1.72184 -3.41283,-1.72184 -3,-2.78122 -3,-2.78122 -6.22895,-0.41911 -6.22896,-0.41912 -0.76947,-0.76947 -0.76948,-0.76947 1.83982,-1.3453 1.83981,-1.34531 -3.02804,-1.56586 -3.02804,-1.56586 -1.56067,0.59889 -1.56067,0.59888 -4.75267,-3.0161 -4.75268,-3.01611 -3.5,-1.46097 -3.5,-1.46098 -2.42431,-2.62888 -2.42432,-2.62888 h -3.12868 -3.12868 l -4.19701,-3.08651 -4.197,-3.08651 v -1.03849 -1.03849 l -2.87303,0.57461 -2.87303,0.5746 -2.30128,-2.4496 -2.30129,-2.44961 -3.07568,-0.006 -3.07569,-0.006 -1.70349,-2.99367 -1.70349,-2.99368 h -2.35942 -2.35942 l -2.87418,-3 -2.87418,-3 h -31.84615 -31.84619 l -5.0077,2.53762 -5.0078,2.53762 -3.5685,-0.66945 -3.5685,-0.66946 -0.6405,1.00286 -0.6405,1.00285 -6.2215,3.12898 -6.2214,3.12898 h -3.6825 -3.6824 l -6.5961,3.69365 -6.5961,3.69366 -2.25,-0.18245 -2.25,-0.18246 v 1.9009 1.9009 l -4.25,0.66095 -4.25,0.66095 -1.6857,0.47394 -1.6857,0.47394 -0.3143,1.52381 -0.3143,1.52382 -5.5,2.18015 -5.5,2.18015 -0.9871,2.24904 -0.9871,2.24905 h -1.7629 -1.7629 v 1.75585 1.75585 l -4.8685,2.23347 -4.8685,2.23347 -5.6315,6.41436 -5.6315,6.41437 v 1.11249 1.1125 l -3.5,1.66903 -3.5,1.66903 v 0.88539 0.88538 l -4.1565,4.9294 -4.1565,4.92941 h -1.4246 -1.4245 l -10.4797,10.62037 -10.4798,10.62036 0.5098,1.32844 0.5098,1.32845 -1.949,0.61858 -1.949,0.61858 v 2.45736 2.45736 l -2.5053,0.95253 -2.5054,0.95253 -1.6798,3.52272 -1.6799,3.52272 h -2.3148 -2.3148 v 2.46482 2.46481 l -2.085,1.11587 -2.085,1.11586 -1.893,4.16932 -1.8931,4.16932 -0.022,3.67327 -0.022,3.67328 -2.3198,2.82672 -2.3199,2.82673 -2.6801,4.87595 -2.6802,4.87596 v 3.7516 3.7516 l -1.5444,1.28179 -1.5445,1.28178 0.6329,2.88162 0.6329,2.88162 -1.1863,1.42947 -1.1864,1.42947 0.6702,4.87241 0.6701,4.8724 -1.4526,5.56253 -1.4526,5.56252 1.5289,1.5289 1.5289,1.52891 -1.0916,2.81573 -1.0916,2.81574 -1.6423,7.68254 -1.6423,7.68255 0.3354,17.05753 0.3353,17.05752 -1.25,0.47855 -1.25,0.47854 v 3.03139 3.03138 h 1.3847 1.3846 l -3.297,6.25 -3.297,6.25 -1.1848,4.46762 -1.1847,4.46762 1.0398,0.3466 1.0398,0.3466 1.2373,5.52896 1.2373,5.52896 2.3953,0.9107 2.3954,0.9107 1.4961,1.49612 1.4961,1.49612 h 5.9096 5.9097 l 6.5235,-3.21691 z m -7.4857,-153.78309 v -1 h -1 -1 v 1 1 h 1 1 z m 574.00002,-152 v -1 h -1 -1 v 1 1 h 1 1 z m 706,661.30404 -1.5,-0.5381 -5.7249,-5.5768 -5.7249,-5.5769 -1.6334,-7.3414 -1.6333,-7.3415 0.7028,-4.6867 0.7029,-4.6868 1.9054,-1.3346 1.9054,-1.3346 v -2.9348 -2.9349 l 2,-1.249 2,-1.249 v -2.8531 -2.853 l 2,-0.5231 2,-0.523 v -1.6333 -1.6334 l -1.9427,-3.1862 -1.9428,-3.1862 -2.0535,-1.099 -2.0535,-1.099 v -1.9648 -1.9648 h -1.8592 -1.8591 l -7.7504,-3.5809 -7.7504,-3.5809 -2.3905,0.5999 -2.3904,0.6 v -2.883 -2.8831 l -4,-2.772 -4,-2.772 v -1.9576 -1.9576 l -2,-0.5231 -2,-0.523 v -2.8833 -2.8834 h -2.1288 -2.1289 l 0.6633,-5 0.6633,-5 h -1.4891 -1.4892 l -0.6566,-3.5 -0.6566,-3.5 h -1.3887 -1.3887 v -8.3 -8.3 l -1.1453,-1.1453 -1.1454,-1.1454 1.2005,-19.7868 1.2004,-19.7868 1.4449,-1.5966 1.4449,-1.5966 v -4.1361 -4.136 l 2.028,-1.0854 2.028,-1.0853 -0.6022,-0.9744 -0.6021,-0.9743 4.0741,-6.451 4.0742,-6.451 v -3.5559 -3.5559 l 1.5,-0.5756 1.5,-0.5756 v -2.8256 -2.8256 l 1.8669,-0.5925 1.8668,-0.5926 1.0955,-7.2248 1.0955,-7.2249 0.2821,-10.2075 0.2821,-10.2075 -3.9944,-4.10274 -3.9945,-4.10283 -7.1231,-3.93973 -7.1231,-3.93974 h -2.0453 -2.0454 l -2.1631,-3.5 -2.1631,-3.5 h -2.032 -2.032 l 0.6668,-4.44664 0.6668,-4.44665 -1.6355,-3.16277 -1.6355,-3.16278 2.7693,-2.89058 2.7694,-2.89058 h -1.3421 -1.3421 l 1.655,-1.82874 1.655,-1.82874 v -5.17126 -5.17126 h 1.3834 1.3833 l 10.1474,-11.89932 10.1475,-11.89931 2.7192,-0.67482 2.7192,-0.67481 2,-1.83645 2,-1.83646 4.5,-1.18244 4.5,-1.18244 1.75,-1.56196 1.75,-1.56197 v -1.84501 -1.84501 h 2.051 2.0511 l 1.4623,-3.5 1.4624,-3.5 h 2.4866 2.4866 v -0.9856 -0.98561 l 6.0865,-3.07247 6.0866,-3.07247 2.6634,0.30808 2.6635,0.30807 0.581,5.5 0.5809,5.5 -4.6752,5.5 -4.6752,5.5 -1.7045,2.64887 -1.7045,2.64887 -2.9512,1.22245 -2.9513,1.22245 v 1.07396 1.07396 l -2.6871,2.80472 -2.6871,2.80472 h -2.7334 -2.7335 l -0.6628,3.01786 -0.6629,3.01785 -4.3573,3.32711 -4.3574,3.3271 1.679,1.67905 1.6791,1.67905 -2.1597,6.22599 -2.1596,6.22599 0.5536,2.83215 0.5537,2.83214 1.3677,0.52484 1.3677,0.52485 v 1.91776 1.91776 l 2.75,1.03887 2.75,1.03887 2.75,2.62347 2.75,2.62347 v 2.95267 2.95266 l 1.75,1.27878 1.75,1.27877 0.5196,14.33144 0.5196,14.33154 1.2304,2.1843 1.2304,2.1842 v 8.0658 8.0657 h -0.9236 -0.9237 l 0.1249,4.25 0.1248,4.25 -3.7998,9 -3.7998,9 -1.0656,3 -1.0656,3 -2.7717,7.0265 -2.7717,7.0266 -0.6905,5.4734 -0.6905,5.4735 -1.8271,2.0149 -1.827,2.0149 -1.7201,10.3575 -1.7202,10.3574 2.2908,11.8894 2.2907,11.8893 3.0392,4.2383 3.0392,4.2383 1.3436,0.7997 1.3437,0.7997 v 1.8725 1.8725 l 4.75,4.0713 4.75,4.0714 1.3129,0.01 1.3128,0.01 -0.3128,2.25 -0.3129,2.25 2.5,0.3412 2.5,0.3412 1.5794,1.4094 1.5795,1.4095 14.2185,0.956 14.2186,0.9561 2.4558,-1.1189 2.4558,-1.119 3.4546,3.9123 3.4545,3.9122 0.042,1.643 0.042,1.643 -1.5,0.5756 -1.5,0.5756 v 3.0981 3.0981 l -2.5,3.2777 -2.5,3.2777 v 2.3177 2.3178 l -2.5422,4.3378 -2.5421,4.3379 h -0.9579 -0.9578 v 2.257 2.2571 l -2.347,8.5305 -2.347,8.5306 1.4829,2.2335 1.483,2.2334 -1.636,1.8077 -1.6359,1.8077 v 5.2026 5.2027 l -1.75,0.5841 -1.75,0.5842 -6.3623,2.8845 -6.3622,2.8844 -1.6378,-0.079 -1.6377,-0.079 -1.5,-0.5381 z m 85.6942,-20.8356 -2.8057,-2.4684 h -3.3084 -3.3084 l -1.6358,-4.2834 -1.6359,-4.2835 v -3.16 -3.16 l 3,-1.7722 3,-1.7721 v -2.8058 -2.8059 l 2.5,-1.1391 2.5,-1.139 v -0.8395 -0.8395 h -1 -1 v -2.5 -2.5 h 1.5 1.5 v -2.9681 -2.968 l -2.4112,-1.282 -2.4113,-1.2819 -5.3515,-7.5 -5.3515,-7.5 -2.9387,-0.3359 -2.9386,-0.3358 -2.4335,-1.9142 -2.4334,-1.9141 h -3.8652 -3.8651 v -1 -1 h -2 -2 v -7.8038 -7.8039 l 3.5,-3.3923 3.5,-3.3923 v -1.1114 -1.1113 l 4.6242,-3.2594 4.6241,-3.2594 4.1259,0.6204 4.1258,0.6205 2.75,0.5259 2.75,0.5259 v 1.9879 1.988 l 2.1252,-0.6745 2.1253,-0.6746 -0.6843,1.1072 -0.6842,1.1071 h 1.8786 1.8787 l 2.1463,2.4684 2.1462,2.4684 6.0056,3.0316 6.0056,3.0316 h 5.5484 5.5483 l 4.2302,2.6165 4.2301,2.6164 3.7139,3.5513 3.7139,3.5512 1.0999,5.298 1.0999,5.298 -4.6097,10.9208 -4.6096,10.9208 -1.9541,1.7685 -1.9542,1.7685 v 2.3063 2.3062 l -2.0482,8.7888 -2.0481,8.7887 -3.148,3.25 -3.148,3.25 h -2.1489 -2.1488 l -1.81,2 -1.81,2 -4.595,-0.032 -4.595,-0.032 -2.8058,-2.4684 z m -103.6942,0.5316 v -1 h 1.059 1.059 l -0.618,1 -0.618,1 h -0.441 -0.441 z m 74.474,-517.04217 -0.6441,-1.04213 -3.9574,-1.58343 -3.9574,-1.58343 0.6517,-4.34608 0.6518,-4.34608 -2.6657,-1.21459 -2.6658,-1.21459 0.6444,-3.81377 0.6443,-3.81377 h -1.5879 -1.5879 v -3.84501 -3.84501 l -2,-1.80998 -2,-1.80998 v -3.21928 -3.21929 l -1.5263,-4.32608 -1.5264,-4.32608 -1.6253,-1.79594 -1.6253,-1.79595 0.9893,-20.42073 0.9893,-20.42073 6.8283,-9.17082 6.8283,-9.17082 2.3341,-0.8874 2.334,-0.8874 v -1.31654 -1.31654 l 4.4243,-4.34215 4.4244,-4.34215 -0.8862,-2.33066 -0.8861,-2.33066 0.9618,-0.59442 0.9618,-0.59441 8e-4,-4.69099 8e-4,-4.69098 3.0744,-6.49886 3.0745,-6.49886 -0.5328,-2.66392 -0.5328,-2.66392 1.5553,-1.29083 1.5554,-1.29083 -0.5536,-3.41153 -0.5536,-3.41152 1.1395,-4.93688 1.1396,-4.93687 2.8163,-1.6636 2.8162,-1.6636 v -2.23776 -2.23777 l 5.25,-5.6238 5.25,-5.62381 8,-1.81356 8,-1.81355 9,-0.65008 9,-0.65008 5.25,4.61836 5.25,4.61836 v 8.39394 8.39394 l -2.3842,5.39104 -2.3841,5.39103 -2.6159,0.65653 -2.6158,0.65653 v 1.79386 1.79386 l -2.9002,2.77854 -2.9001,2.77854 -0.6559,4.37331 -0.6558,4.37332 2.2441,3.03523 2.244,3.03524 h 2.0714 2.0714 l 1.1964,1.91567 1.1963,1.91568 6.7171,0.71933 6.717,0.71934 2.1918,2.36499 2.1918,2.36499 h 1.9272 1.9271 l 4.4164,4.5 4.4164,4.5 h 1.2084 1.2084 l 2.0077,2.75 2.0077,2.75 11.4726,-0.10046 11.4726,-0.10047 7.1031,-1.8423 7.1031,-1.8423 v -2.44418 -2.44419 l 6.5,-7.26261 6.5,-7.2626 v -1.92565 -1.92566 l 4.5,-5.79511 4.5,-5.79511 v -1.63913 -1.63914 l 2,-1.24902 2,-1.24902 v -1.88454 -1.88453 l 1.4057,-0.53942 1.4057,-0.53942 0.6405,-2.91619 0.6405,-2.91619 3.4538,-3.34754 3.4538,-3.34755 v -1.60089 -1.60088 l 4,-3.9059 4,-3.9059 v -2.58482 -2.58483 l 2.9594,-3.46222 2.9593,-3.46223 0.041,-4.20031 0.041,-4.20031 1.4132,-0.79969 1.4133,-0.79969 0.3367,-3 0.3368,-3 2.3328,-0.3304 2.3328,-0.3304 -0.658,-4.78377 -0.6579,-4.78377 1.4621,-0.56105 1.462,-0.56106 0.3823,-7.56892 0.3822,-7.56892 2.2308,-1.56256 2.2309,-1.56256 v -3.32085 -3.32085 l 1.5,-1.24489 1.5,-1.24489 v -1.42721 -1.42722 l -1.381,-2.70034 -1.3811,-2.70034 0.8894,-6.41282 0.8894,-6.41282 -1.3684,-2.08837 -1.3684,-2.08837 1.192,-3.99881 1.192,-3.99881 1.6433,-3.1525 1.6433,-3.15251 -1.4894,-0.57154 -1.4894,-0.57155 0.6608,-15.3263 0.6609,-15.32631 -1.6794,-5.05601 -1.6793,-5.05602 -2.5342,-2.38071 -2.5341,-2.38071 0.6121,-3.26292 0.6121,-3.26292 h -4.0262 -4.0263 l -0.6369,-2.75 -0.6368,-2.75 -9.6134,-9.75 -9.6135,-9.75 h -1.7687 -1.7688 v -2.77682 -2.77682 l -7,-6.94636 -7,-6.94636 v -2.08939 -2.08939 l -7.0221,-7.62077 -7.022,-7.62077 -2.1793,-0.31666 -2.1793,-0.31666 -3.7791,-6.5 -3.779,-6.5 -0.01,-6 -0.01,-6 0.6285,-3.80345 0.6285,-3.80345 1.3837,0.53094 1.3836,0.53095 -1.0232,-1.91175 -1.0231,-1.91176 v -4.10558 -4.10558 l 2,-3.92032 2,-3.92032 v -3.50466 -3.50465 l 2,-1.07037 2,-1.07037 v -1.96481 -1.96482 h -0.9064 -0.9064 l 0.8412,-3.25 0.8413,-3.25 1.1463,-5.79221 1.1463,-5.79222 1.9189,-1.19833 1.9188,-1.19833 v -4.29084 -4.29084 l 1.5298,-0.58704 1.5298,-0.58704 -0.6369,-2.0068 -0.637,-2.00681 1.1072,0.68425 1.1071,0.68424 v -5.23027 -5.23028 l 1.5727,-1.73781 1.5727,-1.73782 -1.5519,-3.00106 -1.5519,-3.00107 1.4451,-4.80189 1.4452,-4.80189 -1.216,-0.75799 -1.2159,-0.75799 -0.5736,2.22002 -0.5735,2.22002 -0.7439,-2.25 -0.7438,-2.25 0.6575,-2.07166 0.6576,-2.07167 -1.5602,-1.724 -1.5602,-1.72399 -2.9917,-6.59805 -2.9917,-6.59804 -0.1565,-9.3563 -0.1565,-9.35629 1.2824,-5 1.2825,-5 1.2236,-2 1.2235,-2 0.6395,-3.65345 0.6394,-3.65345 1.4728,-0.56516 1.4728,-0.56517 v -2.464 -2.46399 l 2.0723,-0.65773 2.0723,-0.65773 -0.6061,-1.57971 -0.6062,-1.57971 1.2195,-0.75373 1.2196,-0.75374 -1.2742,-1.53526 -1.2741,-1.535247 0.637,-2.90042 0.6371,-2.90042 2.8653,-2.745202 2.8654,-2.745202 0.6757,-5.821449 0.6756,-5.821449 1.9104,-1.728879 1.9125,-1.728878 v -1.690025 -1.690025 l 2.0353,-1.841891 2.0352,-1.841892 -0.5073,-1.322071 -0.5073,-1.322072 1.972,-1.231571 1.9721,-1.231572 v -2.702917 -2.702917 l 3,-1.772143 3,-1.772144 v -3.714842 -3.714841 l 2.25,-0.319551 2.25,-0.319551 2.2489,-4.459623 2.2489,-4.459622 1.5011,-0.840068 1.5011,-0.840067 v -3.436122 -3.436121 l 3.9781,-2.632568 3.9781,-2.632568 1.2228,-3.38162 1.2228,-3.381621 h 1.7788 1.7788 l 1.9472,-3.816898 1.9472,-3.8168974 1.5731,-1.305547 1.5731,-1.3055472 V 2.5418498 0.62223032 l 7.7124,0.2920643 7.7123,0.29206418 3.7858,4.9999998 3.7857,5.0000004 -1.5438,1.143685 -1.5439,1.143685 0.6421,2.558228 0.6421,2.558227 -1.6503,4.968391 -1.6502,4.968392 -2.4461,1.602749 -2.4461,1.602749 v 1.802633 1.802633 l -2.5386,2.384923 -2.5387,2.384922 -1.08,4.289392 -1.0801,4.289391 h -1.8428 -1.8427 l -1.128,4.25 -1.1279,4.25 -2.0329,2.194637 -2.0329,2.194637 0.666,2.653651 0.666,2.653651 -2.4666,3.233927 -2.4666,3.233926 -0.6928,7.417785 -0.6928,7.417786 -1.7626,5.5 -1.7625,5.500004 -0.6479,9.834837 -0.6479,9.83485 -2.4738,4.88191 -2.4739,4.88191 v 2.46586 2.46585 l -2,0.63478 -2,0.63478 v 2.48227 2.48227 l -1.5943,3.08304 -1.5943,3.08304 1.1781,0.72814 1.1782,0.72813 -1.7281,0.66312 -1.728,0.66311 0.699,13.47605 0.6989,13.47605 h -2.4161 -2.4161 l 0.5064,2.64862 0.5063,2.64863 -1.145,-0.70764 -1.145,-0.70764 v 2.02383 2.02383 l -1.8859,1.00933 -1.886,1.00933 -1.7636,7.19643 -1.7635,7.19643 0.6333,15.34959 0.6334,15.34959 -3.3604,4.72984 -3.3604,4.72983 -1.6245,3.2024 -1.6245,3.2024 -1.9702,13.40693 -1.9702,13.40693 -1.0614,2.79149 -1.0613,2.7915 0.6692,5.91507 0.6692,5.91508 9.7752,9.51395 9.7751,9.51394 1.2486,3.17016 1.2486,3.17015 5.0364,7.63709 5.0364,7.63709 7.5533,3.54601 7.5532,3.546 5.75,2.51188 5.75,2.51187 v 1.05503 1.05503 h 2.5 2.5 v 1.00104 1.00105 l 6,4.65942 6,4.65942 v 1.64337 1.64337 l 3.2976,3.19616 3.2976,3.19617 h 1.7024 1.7024 v 1.10699 1.10699 l -1.5,-0.57561 -1.5,-0.5756 v 1.34617 1.34617 l 1.653,1.37183 1.6529,1.37184 -0.6363,23.31822 -0.6364,23.31823 -1.4693,2.68238 -1.4693,2.68239 -0.9159,23.29364 -0.9158,23.29364 -1.4837,1.20636 -1.4837,1.20636 -3.2324,9.44257 -3.2324,9.44256 0.6459,4.30744 0.6459,4.30743 h -1.5612 -1.5613 v 3.19528 3.19528 l -2.3773,2.55472 -2.3773,2.55472 -1.6983,5.23577 -1.6984,5.23576 -2.9243,2.08233 -2.9244,2.08233 v 2.34148 2.34149 l -7.4661,14.77936 -7.4662,14.77936 -5.9401,6.06106 -5.9401,6.06106 -0.6661,5.5 -0.6661,5.5 -0.4469,1.59824 -0.4468,1.59825 -2.3277,1.06053 -2.3276,1.06052 -2.3514,5.84123 -2.3515,5.84123 -1.3245,1.00328 -1.3246,1.00328 -0.6006,3.99672 -0.6005,3.99672 -5.0925,5.25 -5.0924,5.25 h -1.2841 -1.2842 v 2.5 2.5 h -1.5562 -1.5563 l -2.0168,4.55943 -2.0169,4.55943 -1.6769,0.59257 -1.6769,0.59257 -1.5179,1.2929 -1.5178,1.29291 -9.7821,0.84744 -9.782,0.84744 -1.0725,-1.29234 -1.0726,-1.29235 h -3.3424 -3.3423 l -1.0704,-2 -1.0704,-2 h -2.0516 -2.0517 l -1.1324,-3 -1.1324,-3 h -1.8057 -1.8057 l -7.2251,-3.6318 -7.225,-3.6318 -4.1802,-2.8682 -4.1802,-2.8682 h -7.4864 -7.4865 l -0.3547,-1.06414 -0.3548,-1.06414 -12.7759,1.26732 -12.7759,1.26733 -4.7415,3.54681 -4.7415,3.54682 -5.2112,2.42094 -5.2112,2.42093 v 2.79011 2.79011 l -1.8729,1.78895 -1.8729,1.78896 -1.6271,3.20034 -1.6271,3.20034 v 14.59015 14.59016 l 1.8983,2.7095 1.8982,2.70951 0.5288,3.68807 0.5289,3.68808 -1.4271,1.18437 -1.4271,1.18437 v 7.37755 7.37756 h -2.5 -2.5 v 0.94098 0.94099 l 1,0.61803 1,0.61803 v 2.57183 2.57182 l -3.4461,-0.55922 -3.4461,-0.55922 -1.1314,3.42838 -1.1315,3.42838 h -1.8634 -1.8635 z"
       style="fill:#222222" />
  </g>
</svg>
