<svg xmlns="http://www.w3.org/2000/svg" viewBox="0 0 2126 2792" height="2792" width="2126"><path class="wsl" d="m1177.4 2790.8-1-1.9-5.3 0.5-5.3 0.5-1.3-1.6-1.3-1.6h-4.2-4.2l-8.4-2.8-8.4-2.8-10.5 0.7-10.5 0.7-5-2-5-2-9.3-1.3-9.3-1.3-2.5-1.7-2.5-1.7-5.2-1.7-5.2-1.7-5 1.2-5 1.2-2.1 0.1-2.1 0.1-5.9-3.6-5.9-3.6-3-0.7-3-0.7-0.3-2.2-0.3-2.2-2.8 0.6-2.8 0.6-12.2-4.2-12.2-4.2-3.6-2.4-3.6-2.4-5.5-1.1-5.5-1.1-2.7-2.6-2.7-2.6-2.1-2-2.1-2-3.8-5-3.8-5-0.7-3.5-0.7-3.5-1.8-3.5-1.8-3.5-3.6-10.3-3.6-10.3v-2.4-2.4l-3-5.3-3-5.3v-3.7-3.7l-2.6-4.4-2.6-4.4h0.8 0.8l-3.9-3.9-3.9-3.9 1.7-2.6 1.7-2.6h-1.5-1.5v-5.1-5.1l-1.2-2.2-1.2-2.2-1.3-6.5-1.3-6.5-2.1-9-2.1-9-1.5-5-1.5-5-3.4-3.1-3.4-3.1-7.9-1.7-7.9-1.7-16.8 1.1-16.8 1.1-2.1 1.3-2.1 1.3-6.7 0.7-6.7 0.7-1.6 1.8-1.6 1.8-4.5 1.7-4.5 1.7-8.7-1.1-8.7-1.1-5.4 0.1-5.4 0.1-2.5 0.7-2.5 0.7-2.4-1.5-2.4-1.5-1 1.8-1 1.8-3.3-0.6-3.3-0.6-0.5 1.3-0.5 1.3-9.3-0.8-9.3-0.8-1.8-1.6-1.8-1.6-1.7 1.5-1.7 1.5-15.1 1.2-15.1 1.2-5.1 0.6-5.1 0.6v1.7 1.7l-3.1 0.6-3.1 0.6h-7.3-7.3l-0.3 1-0.3 1-3.7-0.8-3.7-0.8-0.4 1.1-0.4 1.1-21.4-0.3-21.4-0.3-2.3-1.5-2.3-1.5-1.9 1.7-1.9 1.7-3-1.2-3-1.2-29.4 0.4-29.4 0.4-1.6 1.4-1.6 1.4-6.8-0.7-6.8-0.7-1.9-0.5-1.9-0.5 0.7 1.1 0.7 1.1h-0.7-0.7l-8.9-3.6-8.9-3.6-12.5 1.1-12.5 1.1h-8.9-8.9l-1-1.9-1-1.9-10.5-0.7-10.5-0.7-22.2 1.2-22.2 1.2-2-0.2-2-0.2-12.8-0.5-12.8-0.5-4.7 2.5-4.7 2.5-8.7 1.2-8.7 1.2-2.1-0.7-2.1-0.7-0.6 1.4-0.6 1.4-3.7-1.1-3.7-1.1-34-0.1-34-0.1-3.8-1.3-3.8-1.3-7.4 0.7-7.4 0.7v-1-1l-10.6-0.7-10.6-0.7-4.8-3.5-4.8-3.5-13.5 0.3-13.5 0.3 0-0.7 0-0.7h-7.5-7.5l-0.6-1.5-0.6-1.5h-3.8-3.8l-1.3-1.5-1.3-1.5-4.7 0.6-4.7 0.6-3-1.6-3-1.6-20.4 1-20.4 1-1.8 0.5-1.8 0.5-3.5-1.2-3.5-1.2-3.5 2.1-3.5 2.1h-11.5-11.5l-2.5-1.6-2.5-1.6-1.6 1.3-1.6 1.3-9.7-0.2-9.7-0.2-13.2-3.1-13.2-3.1v-1.4-1.4l-2.8 1.6-2.8 1.6-2.7-1-2.7-1v-0.9-0.9l-1.4 0.1-1.4 0.1-9.2-7.2-9.2-7.2h-1.3-1.3l-1.6-5.2-1.6-5.2 0.8-4.3 0.8-4.3 1.8-2.2 1.8-2.2 4.3-4.6 4.3-4.6 6.2 0.9 6.2 0.9 2.6 2.4 2.6 2.4h2.3 2.3l6.1 1.6 6.1 1.6 4.6-0.5 4.6-0.5 1.9 1.3 1.9 1.3 12 0.5 12 0.5 2.8-1.9 2.8-1.9v1.1 1.1h9.3 9.3l1 0.9 1 0.9 6.5-1.4 6.5-1.4 10.8-2.1 10.8-2.1 1.3 1.1 1.3 1.1 1.9 0.4 1.9 0.4 5.3 3.2 5.3 3.2 2.9-0.1 2.9-0.1 1.9-0.6 1.9-0.6 1.1 2 1.1 2h3.4 3.4l0.6 2.5 0.6 2.5h32.8 32.8l5.3-1.6 5.3-1.6 1.7 1.6 1.7 1.6h4.3 4.3l3 2.1 3 2.1 1.8-1.6 1.8-1.6h2.5 2.5l5.2 1.5 5.2 1.5 2.9-1.5 2.9-1.5 18.3 1 18.3 1 0.7 1.1 0.7 1.1 23.4-0.7 23.4-0.7 1.4 1.7 1.4 1.7 4 1.8 4 1.8 38.6 0 38.6 0 4.5-1.5 4.5-1.5 4.7-3.9 4.7-3.9 8.3-0.5 8.3-0.5 10.6-0.1 10.6-0.1 4.4 0.9 4.4 0.9 5.5 1.5 5.5 1.5-1.4 0.1-1.4 0.1 1.3 1.6 1.3 1.6 3.8 1.9 3.8 1.9h12.9 12.9l2.4 1.8 2.4 1.8 3.5 2 3.5 2 13-0.1 13-0.1 4.5-2.3 4.5-2.3 2.5-0.5 2.5-0.5 7.5-2.4 7.5-2.4 6.5-1.5 6.5-1.5 9.3 0 9.3 0-0.6-1-0.6-1h1.2 1.2l3.4 4 3.4 4h1.4 1.4l0.6-1.7 0.6-1.7 3.5-2.2 3.5-2.2h3.4 3.4l0.9 1.6 0.9 1.6 6.4-1 6.4-1h7 7l3.7 1 3.7 1 5.3-2.7 5.3-2.7 2.8 0.2 2.8 0.2v-1.9-1.9l2.3-0.6 2.3-0.6 12.7 0 12.7 0 0.4 1.1 0.4 1.1 8.3-1.6 8.3-1.6 1.1-0.9 1.1-0.9 13-0.7 13-0.7 5.4-1.5 5.4-1.5 2.3 1.2 2.3 1.2 2.3-1.2 2.3-1.2 2.3 1.3 2.3 1.3 1.3-1 1.3-1 5.4-0.7 5.4-0.7 10.2-4.4 10.2-4.4 3.3-0.7 3.3-0.7 0.9 1.7 0.9 1.7h2.3 2.3l1.1 1.1 1.1 1.1 7-1.7 7-1.7 3.8 1.3 3.8 1.3 6 0.6 6 0.6 3.7 5.3 3.7 5.3-0.5 3.3-0.5 3.3 1.2 2.2 1.2 2.2 3-0.4 3-0.4 1.4 2.7 1.4 2.7 3 2.6 3 2.6v4 4l2 0.6 2 0.6v1.6 1.6l2.5 3.6 2.5 3.6 1.5 7.8 1.5 7.8 2 3.2 2 3.2v1.7 1.7l2 3.9 2 3.9v2.4 2.4l3 2.9 3 2.9-0.6 3.7-0.6 3.7 4 5.4 4 5.4 1.7 5.3 1.7 5.3h1.4 1.4l0.1 5.3 0.1 5.3 10.8 9.6 10.8 9.6 6.1 2.2 6.1 2.2 0.6 1 0.6 1h2.8 2.8l0.5 2 0.5 2 1.6-0.6 1.6-0.6 0 1.4 0 1.4 4 1.7 4 1.7v2.1 2.1h1.6 1.6l2.5 2 2.5 2h3.3 3.3l0.6 1.5 0.6 1.5h2 2l1.4 2 1.4 2 6.6-0.7 6.6-0.7v1 1l6.9 0.4 6.9 0.4 2 1.8 2 1.8 8-0.3 8-0.3 2 1.8 2 1.8 9.9 0.5 9.9 0.5 3.5-1.8 3.5-1.8 2.2-2 2.2-2 7.3 1.2 7.3 1.2 3.5 3.5 3.5 3.5h2.7 2.7v1.7 1.7l1.7-1.7 1.7-1.7 3.1 3 3.1 3 3.2-0.9 3.2-0.9v1.4 1.4h1.6 1.6l-0.6-1.5-0.6-1.5h0.5 0.5l3 1.5 3 1.5v-1.5-1.5h2.3 2.3l1.1-2.5 1.1-2.5h1.6 1.6l4.7-2.4 4.7-2.4 2.7-2.8 2.7-2.8 1-2.7 1-2.7 1.9 0.5 1.9 0.5-0.1-2.1-0.1-2.1 8-8 8-8h1.2 1.2l2.3-5.5 2.3-5.5 5.3-3.2 5.3-3.2v-1.7-1.7l1.5-4.4 1.5-4.4 1.4-1 1.4-1 1.6-7.8 1.6-7.8v-0.4-0.4h2.6 2.6l-0.6-2.5-0.6-2.5 2.5-5 2.5-5v-5.9-5.9l-2.5-9.7-2.5-9.7 1.2-3.2 1.2-3.2 8.8-5.2 8.8-5.2h2.1 2.1l1.7-2.2 1.7-2.2 7.6 2.8 7.6 2.8 2.8 3 2.8 3 6.2-0.3 6.2-0.3 2.4 2.3 2.4 2.3 14.4-1.7 14.4-1.7 21.8 0.7 21.8 0.7 5.7 2 5.7 2 8.5-1.1 8.5-1.1 7 0 7 0 3 0.2 3 0.2 10-1.3 10-1.3 11.2 1.3 11.2 1.3 2.6-1.2 2.6-1.2 3.2 0 3.2 0 9.9 1.5 9.9 1.5 1.1-1 1.1-1 5.5 2.6 5.5 2.6 4.3-1.1 4.3-1.1 1 0.6 1 0.6 2.3-1.5 2.3-1.5 1.9 1.4 1.9 1.4 13.9 0 13.9 0 5.9 3.6 5.9 3.6v1.4 1.4h3 3v1.1 1.1l1.4-0.6 1.4-0.6 2.6 2 2.6 2 2.1-0.7 2.1-0.7 2.4 1.6 2.4 1.6 2.7-1 2.7-1 1.3 1.8 1.3 1.8 1.3-1.2 1.3-1.2h6.5 6.5l14.9-2.6 14.9-2.6 1.8-2.1 1.8-2.1 0 1.3 0 1.3h5.5 5.5l1-1.7 1-1.7 0.8 0.8 0.8 0.8 2.1-2 2.1-2 8.4 1.1 8.4 1.1 4 1.6 4 1.6 2.8 2.5 2.8 2.5v7.3 7.3l-1.6 4.3-1.6 4.3-3.1 2.8-3.1 2.8h-2.2-2.2l-2.5 2-2.5 2-3.6-0.6-3.6-0.6-1.4 1.2-1.4 1.2-6.3 1-6.3 1-3 1.4-3 1.4-6 0.7-6 0.7-2.8 1.5-2.8 1.5-18.7 0.9-18.7 0.9-9.5 1.5-9.5 1.5-1.2 0-1.2 0v1.6 1.6l-5.2-0.7-5.2-0.7-3.7-1.9-3.7-1.9-5 1.2-5 1.2-4.6-1.8-4.6-1.8-9.2-0.4-9.2-0.4-19.8-1.4-19.8-1.4-3.9 1-3.9 1-1.9-1.9-1.9-1.9-15.9-0.6-15.9-0.6-5.4-1.6-5.4-1.6-10.1-0.8-10.1-0.8-1 1.3-1 1.3-6.3 0.3-6.3 0.3v-1.2-1.2l-2.5-0.6-2.5-0.6-2.7 0.7-2.7 0.7-8.6 0.8-8.6 0.8-3.8 1.6-3.8 1.6-1.4-1.1-1.4-1.1-1.9 1.7-1.9 1.7-11.9-1.5-11.9-1.5-12.2-0.7-12.2-0.7v1.2 1.2l-3 1-3 1v4.4 4.4l-2.5 0.6-2.5 0.6v0.9 0.9l-4 3.7-4 3.7-0.7 2.1-0.7 2.1-2.5 3.7-2.5 3.7 0.7 1.1 0.7 1.1-4.7 5-4.7 5 0.6 3 0.6 3-2.1 0.5-2.1 0.5 0.6 3 0.6 3-2.5 3-2.5 3v2.7 2.7l-3.5 3.4-3.5 3.4-1.2 3.5-1.2 3.5 0.1 2.8 0.1 2.8h-1.4-1.4v1.8 1.8l-4.2 5.7-4.2 5.7h-2.2-2.2l-1.9 2.1-1.9 2.1-2.4-0.5-2.4-0.5-3.5 1.4-3.5 1.4-1.2-1.6-1.2-1.6-4.8 0.7-4.8 0.7-2.1 4.1-2.1 4.1-1.3 0.8-1.3 0.8-2.7 6-2.7 6h-1.9-1.9l-10.1 5.1-10.1 5.1-2.9-0.6-2.9-0.6-2.8 2-2.8 2-19.4 0.9-19.4 0.9-2.2 0-2.2 0-1-1.9zm181-198.7v-1.6l-1.2 0.4-1.2 0.4-0.4 1.2-0.4 1.2h1.6 1.6zm-189.4 95.1-1.9-1.5h-2.2-2.2l-0.7 1.1-0.7 1.1-2.3-2.2-2.3-2.2-17.2-0.9-17.2-0.9-3.8 3.1-3.8 3.1-7.1-3.6-7.1-3.6h-2-2v-1.6-1.6l-1 0.6-1 0.6-7.3-3.6-7.3-3.6-4.2-4.1-4.2-4.1v-2.8-2.8h-1.5-1.5v-5.5-5.5h-1.5-1.5v-5.5-5.5h-1-1l0.7-5 0.7-5h-1.6-1.6v-3.8-3.8l-4-3.2-4-3.2v-1.9-1.9l-2.1-1.1-2.1-1.1 0.6-0.6 0.6-0.6-3.1-5.6-3.1-5.6-2.5-2.7-2.5-2.7h-1.2-1.2l-3.1-2.6-3.1-2.6-2.9-5.6-2.9-5.6-4.3-4.2-4.3-4.2-4-0.7-4-0.7-3.7-2.1-3.7-2.1-1.1-2.8-1.1-2.8-5.7-5.3-5.7-5.3-1.2-3.8-1.2-3.8-2.9-3.3-2.9-3.3-2.9-1.2-2.9-1.2-2.2-3.9-2.2-3.9-3.4-2.6-3.4-2.6-4.7-1.4-4.7-1.4-3.1 0.6-3.1 0.6-7.2-2.2-7.2-2.2-5.7 0.5-5.7 0.5-8.5-2.5-8.5-2.5-1.2-1.5-1.2-1.5-19.8 0.5-19.8 0.5-3.4 0.3-3.4 0.3-0.4 1.2-0.4 1.2-3.8-0.6-3.8-0.6-0.7 1.1-0.7 1.1h-5.7-5.7l-4.7 3.9-4.7 3.9-4 0.6-4 0.6-6.4 3.6-6.4 3.6-10.5 0.5-10.5 0.5-4 2.1-4 2.1-12.5 0.7-12.5 0.7-4.6 2-4.6 2-7.7 0.7-7.7 0.7-0.5 0.9-0.5 0.9h-3.3-3.3l-2.9 1.4-2.9 1.4-6.8 0.6-6.8 0.6-0.6-1.5-0.6-1.5-0.8 0.5-0.8 0.5-1.3-1.6-1.3-1.6-12.5 0.7-12.5 0.7-4.1 2.4-4.1 2.4h-0.8-0.8l1.8-2 1.8-2h-3.8-3.8l-13.1 3.6-13.1 3.6-2.3 1.5-2.3 1.5-9.9-3.2-9.9-3.2-2.1 0.7-2.1 0.7v-0.9-0.9l-2.7-1.2-2.7-1.2-9.3 0.7-9.3 0.7-4.3-4-4.3-4-3.9-1.4-3.9-1.4h-30-30l-6 1.4-6 1.4-4.4 4.4-4.4 4.4h-36.3-36.3v-1.4-1.4l-6.7-1.6-6.7-1.6-33.5-0.6-33.5-0.6-17-0.8-17-0.8-1.7-0.8-1.7-0.8v1.2 1.2l-10.7-0.4-10.7-0.4-5.5-1.6-5.5-1.6h-26.7-26.7l-1.3-1.6-1.3-1.6-4.6-2.7-4.6-2.7-9.5-0.2-9.5-0.2-2.2 1.4-2.2 1.4-1.2-1.5-1.2-1.5h-3.4-3.4v-1.5-1.5h-1.9-1.9l-2.6-4-2.6-4-2.8-1.4-2.8-1.4-10.5 1.3-10.5 1.3-7.1 0-7.1 0-2.1-2.5-2.1-2.5-4.2-2.2-4.2-2.2-1.8-2.1-1.8-2.1 0-2.7 0-2.7-1.9-0.6-1.9-0.6-0.7-3.7-0.7-3.7-0.7-10.5-0.7-10.5-2.1-7.5-2.1-7.5 0-6.3 0-6.3-2.2-3-2.2-3 1.2-1.9 1.2-1.9v-1.5-1.5h-1.9-1.9l-0.6-5.7-0.6-5.7-0.9-6.4-0.9-6.4-0.9-0.6-0.9-0.6-4.7-9.9-4.7-9.9v-2.8-2.8l-1.2-2.5-1.2-2.5 1.8-2 1.8-2-0.7-1.8-0.7-1.8-0.4-2-0.4-2-1-9.4-1-9.4-0.6-2.9-0.6-2.9 2.1-2.7 2.1-2.7-0.4-0.4-0.4-0.4-2 1.1-2 1.1h-1.1-1.1v-2.6-2.6l2-0.5 2-0.5-1.1-2.1-1.1-2.1-3.2-15-3.2-15-0.7-4.2-0.7-4.2-0.8-14.3-0.8-14.3-0.8-1.7-0.8-1.7h2.2 2.2l-0.7-2.2-0.7-2.2-0.1-0.5-0.1-0.5 0.7-4.2 0.7-4.2h1.5 1.5l3.5-5.2 3.5-5.2v-2.1-2.1l1.6-1.3 1.6-1.3 1-1.9 1-1.9 1.3-8.7 1.3-8.7-0.9-1.7-0.9-1.7v-10.2-10.2l-1.6-10-1.6-10 2-2.2 2-2.2 0.7-3.5 0.7-3.5 2.3-2.7 2.3-2.7 0.6-6.8 0.6-6.8 0.9-8.7 0.9-8.7-0.5-2-0.5-2 1.5-2.9 1.5-2.9 2-7.9 2-7.9-0.5-5.2-0.5-5.2h1.5 1.5l-0.5-4.5-0.5-4.5 1.1-1.3 1.1-1.3-0.6-2.2-0.6-2.2 3.1-5.5 3.1-5.5v-2.1-2.1l2-3.9 2-3.9v-9.6-9.6l2.2-3.1 2.2-3.1 0.6-10.4 0.6-10.4-0.8-0.8-0.8-0.8 1.5-2.4 1.5-2.4 0.7-4.8 0.7-4.8 0.9-0.5 0.9-0.5v-1.9-1.9l-1.6-0.9-1.6-0.9 1.6-0.6 1.6-0.6 0-4.3 0-4.3 1-6.4 1-6.4-2-2.2-2-2.2v-5.5-5.5l2.6-3.9 2.6-3.9 1.4-4.7 1.4-4.7-0.8-11.6-0.8-11.6 2.3-1.7 2.3-1.7 0.6-5.3 0.6-5.3 2.1-0.8 2.1-0.8 3.3-4.1 3.3-4.1h2.4 2.4l3.5-4.7 3.5-4.7 0-2.8 0-2.8 2.2-3 2.2-3-1.2-1.2-1.2-1.2 0-18.5 0-18.5 1.6-3 1.6-3-0.5-3.2-0.5-3.2 1.9-1 1.9-1v-2.9-2.9l1.5 0.6 1.5 0.6 4.7-4.1 4.7-4.1 1.3 0.5 1.3 0.5v-1-1l-1.1-1.8-1.1-1.8 2.1-2.9 2.1-2.9 0.7-6.5 0.7-6.5 2.4-3.7 2.4-3.7v-3.5-3.5l1-2.3 1-2.3 1.5-20.6 1.5-20.6v-10.2-10.2l-1.1-1.8-1.1-1.8 0.7-5.4 0.7-5.4 5.9-4.4 5.9-4.4-0.6-2.3-0.6-2.3h1.6 1.6l0-0.2 0-0.2 1.4-4 1.4-4-0.8-1-0.8-1-0.7-4.7-0.7-4.7h1.2 1.2l-0.7-3.6-0.7-3.6 2.1-5.7 2.1-5.7-2-7.2-2-7.2 1.1-5.4 1.1-5.4h0.8 0.8l-0.5-2.7-0.5-2.7 6.6-6.5 6.6-6.5v-1.5-1.5l2-1.2 2-1.2v-3.1-3.1l4.1-10 4.1-10-0.7-3.5-0.7-3.5 1.1-1.4 1.1-1.4 0.8-10.9 0.8-10.9 1.2-2.3 1.2-2.3-0.5-3.1-0.5-3.1 1.3-1.8 1.3-1.8-0.5-1.2-0.5-1.2 4-1.3 4-1.3v-1.5-1.5l1.7-1.3 1.7-1.3 0.4-10.4 0.4-10.4 1.4-1.6 1.4-1.6v-2.8-2.8l2.6-7.4 2.6-7.4 2.2-3.4 2.2-3.4 2.1 0 2.1 0 1.9-4.2 1.9-4.2 3.8-4.3 3.8-4.3 0-5.2 0-5.2 1.4-2.7 1.4-2.7h-0.9-0.9v-17.2-17.2l-1.4-1.6-1.4-1.6-0.3-6.5-0.3-6.5 2.1-4.1 2.1-4.1 6.2-5.7 6.2-5.7 1.7-10.4 1.7-10.4 1.7-1.9 1.7-1.9 1.1-3.2 1.1-3.2h1.3 1.3l1.4-4.7 1.4-4.7-0.1-0.5-0.1-0.5-0.6-3.6-0.6-3.6 3.5-4.1 3.5-4.1-0.6-0.6-0.6-0.6 5-6.8 5-6.8 1.2-4.3 1.2-4.3-1.1-6.9-1.1-6.9v-5.5-5.5l1.5-0.6 1.5-0.6v-19.3-19.3l4.4-3.6 4.4-3.6 6.1-1.1 6.1-1.1 1.9 1 1.9 1h2.5 2.5l1.5-2.1 1.5-2.1 1.5 0.6 1.5 0.6 1.5-2.2 1.5-2.2v-2.2-2.2l1-0.6 1-0.6v-4.9-4.9h1.4 1.4l1-3.2 1-3.2 1.2-10.7 1.2-10.7h1.5 1.5l-0.6-3.5-0.6-3.5h1.9 1.9v-7-7h1.5 1.5v-2.5-2.5l1-1.7 1-1.7 2.5-18.6 2.5-18.6 1-2.7 1-2.7v-5.5-5.5l1.4-0.6 1.4-0.6 0.7-5.5 0.7-5.5-1.1-0.7-1.1-0.7 2.4-7.7 2.4-7.7 0.3-2.2 0.3-2.2-1.2-3-1.2-3 1.1-6.5 1.1-6.5 0.9-6.5 0.9-6.5 0.1-6.2 0.1-6.2 0.9-0.6 0.9-0.6 0.7-7 0.7-7h1.2 1.2l-0.5-5.5-0.5-5.5 1.2-11.2 1.2-11.2 2.7-3.1 2.7-3.1 1.2-6.4 1.2-6.4 1.8-3 1.8-3-0.5-3.2-0.5-3.2h1.5 1.5l1.1-3.1 1.1-3.1-0.5-0.9-0.5-0.9 2.6-4.4 2.6-4.4v-5.4-5.4l1.6-2.3 1.6-2.3-0.5-1.4-0.5-1.4 3-11.2 3-11.2 1.4-2 1.4-2-0.5-2.7-0.5-2.7 1.6-5.4 1.6-5.4v-3.8-3.8l2-5 2-5-0.6-1.6-0.6-1.6 1.5-1.7 1.5-1.7 2.1-8.2 2.1-8.2v-8.5-8.5l1.5-1.2 1.5-1.2v-6.9-6.9l1.5-0.6 1.5-0.6v-2.7-2.7l2-1.8 2-1.8v-3.3-3.3l2.9-4.8 2.9-4.8 0.6-3.6 0.6-3.6 3.7-4.4 3.7-4.4 2-6.6 2-6.6 2.7-1.3 2.7-1.3v-2.2-2.2l5.1-8 5.1-8 2.5-4.8 2.5-4.8 2.5-1.1 2.5-1.1v-1.4-1.4l4.5-4.8 4.5-4.8v-1.5-1.5l3-2.9 3-2.9 0-2.6 0-2.6 5-2.2 5-2.2v-2.1-2.1h1.3 1.3l5.4-5.7 5.4-5.7 6.8-8.2 6.8-8.2h1.5 1.5l4.3-3.5 4.3-3.5 2.4 0 2.4 0 2.7-3.8 2.7-3.8 2.4 0.5 2.4 0.5 3.3-1.7 3.3-1.7 5.6-1.9 5.6-1.9 4.8-0.9 4.8-0.9 5.2-2.6 5.2-2.6 2.1-1.9 2.1-1.9 0.6 0.6 0.6 0.6 3.3-2 3.3-2 4.5-0.6 4.5-0.6 7.7-2.4 7.7-2.4 2.9-2.1 2.9-2.1h2.2 2.2l6.9-2.5 6.9-2.5h2.9 2.9v-1.8-1.8l3.5-1.7 3.5-1.7h1.5 1.5l5.9-3 5.9-3 1.6 0.6 1.6 0.6v-1.4-1.4l7.3-1.3 7.3-1.3 1.9-1.3 1.9-1.3 3.5 1.5 3.5 1.5 2.1-1.4 2.1-1.4 3.7-0.7 3.7-0.7 0.7 1.1 0.7 1.1 17.1-0.7 17.1-0.7 3.7 1.5 3.7 1.5 3.6-0.8 3.6-0.8v1.7 1.7l4.8-0.7 4.8-0.7 4.9 2.5 4.9 2.5 5.1-1 5.1-1 0.7 1.2 0.7 1.2 5.4-0.5 5.4-0.5 5.4 1.7 5.4 1.7 4.5 4.3 4.5 4.3 3.2 1.6 3.2 1.6h2.2 2.2l1.7 1.6 1.7 1.6 1.8-1.1 1.8-1.1 8.3 3.6 8.3 3.6h3.5 3.5l2.7 1.9 2.7 1.9 7.7 0.6 7.7 0.6 6.4 1.3 6.4 1.3 5 2.6 5 2.6 11.8 2.1 11.8 2.1 2.1 0.8 2.1 0.8 1.1-0.4 1.1-0.4-0.1 1.7-0.1 1.7 5.4 3.8 5.4 3.8h4.8 4.8l10 5 10 5h3 3l0.6 2 0.6 2 3.9 1 3.9 1 4.7 5.5 4.7 5.5h2.3 2.3l0.5 1.9 0.5 1.9 6.9 3.4 6.9 3.4 10.7 3.1 10.7 3.1h5.8 5.8l6.2 2.5 6.2 2.5h14.6 14.6l3.5-1.4 3.5-1.4v-1.1-1.1l7.3 0 7.3 0 2.5-1.4 2.5-1.4 3 0.5 3 0.5 8.2-2.1 8.2-2.1h5.1 5.1v-0.9-0.9l6.5-0.5 6.5-0.5 4.6-2.7 4.6-2.7 1 0.6 1 0.6-0.6-1.6-0.6-1.6h2.1 2.1v-3.4-3.4l2.5-0.6 2.5-0.6-0.5-1.4-0.5-1.4 4.5-0.7 4.5-0.7 2.1 0.7 2.1 0.7v-1.2-1.2l5 0.5 5 0.5 1.1-1.3 1.1-1.3 2.9 0.6 2.9 0.6v-1.1-1.1h2.1 2.1l5.3-5 5.3-5h1.4 1.4l4.7-4.3 4.7-4.3 0.5 0.5 0.5 0.5v-1.7-1.7h1 1l3.4-3 3.4-3h1.5 1.5l4.4-5.5 4.4-5.5 5-1.6 5-1.6 9-8.9 9-8.9h3.3 3.3l-0.6-1.5-0.6-1.5h3.4 3.4l7.3-2.9 7.3-2.9 10.7-2.2 10.7-2.2 1.7-1.9 1.7-1.9h2 2l-1.8 1.9-1.8 1.9 3.5-1.1 3.5-1.1 12.6 0.7 12.6 0.7v1 1l1.9-0.6 1.9-0.6 5.6 2.5 5.6 2.5 0.6 2.5 0.6 2.5 4.7 0.7 4.7 0.7 2 1 2 1 4.6 3.8 4.6 3.8h0.8 0.8l4.4 3.6 4.4 3.6v1.2 1.2l4 4 4 4-0.5 2.1-0.5 2.1 1.5 0.6 1.5 0.6 3.6 7.2 3.6 7.2-0.4 3-0.4 3 2.8 1.6 2.8 1.6 0.4 17.5 0.4 17.5 1.6 7.8 1.6 7.8-1.6 3.1-1.6 3.1 0.6 24 0.6 24 2 7.3 2 7.3 1.2 1.4 1.2 1.4-1.3 3.5-1.3 3.5 1.1 1.4 1.1 1.4-0.6 2.2-0.6 2.2 2.1 4.9 2.1 4.9 1 8.7 1 8.7 1.2 1.4 1.2 1.4-1.1 2.5-1.1 2.5v2.4 2.4l2.5 3 2.5 3 0.9 4.8 0.9 4.8 1.6 4.4 1.6 4.4v0.9 0.9l-1.1-0.7-1.1-0.7 1.5 2.9 1.5 2.9-0.8 2.3-0.8 2.3h1.4 1.4l0.6 2.8 0.6 2.8 1 4 1 4 1.9 7.5 1.9 7.5 0 3 0 3 1.5 2.1 1.5 2.1 2.7 10.7 2.7 10.7 2.4 1.6 2.4 1.6 2.4 4.8 2.4 4.8 0 4.8 0 4.8 0.6 3.8 0.6 3.8h1.8 1.8l-1.3 4.3-1.3 4.3 2.7 6 2.7 6 0.6 7.3 0.6 7.3 4.8 7.2 4.8 7.2 4.2 8.5 4.2 8.5 1.6 7.1 1.6 7.1 2.3 2.2 2.3 2.2-1.5 3.8-1.5 3.8 4.1 8.1 4.1 8.1v2 2h1.5 1.5v1.6 1.6l4.5 7.4 4.5 7.4v3.8 3.8l1.5 1.2 1.5 1.2v3.3 3.3l5 10.7 5 10.7v1.7 1.7l3 2.9 3 2.9v1.6 1.6l2.5 2.3 2.5 2.3-1.1 1.4-1.1 1.4 2.5 2.7 2.5 2.7 1.7 7.8 1.7 7.8h1.4 1.4v3.9 3.9l2.5 3.4 2.5 3.4 3 5.6 3 5.6 3.3 2.6 3.3 2.6 6 12.9 6 12.9 6.8 9.3 6.8 9.3 1.3 3.7 1.3 3.7-1.4 2.2-1.4 2.2 2 4 2 4-3.5 5.8-3.5 5.8v0.8 0.8h-2.1-2.1l0.6 2 0.6 2-3.6 5.9-3.6 5.9v1.3 1.3l-2.5 4.3-2.5 4.3 0.6 2.5 0.6 2.5-1.6 0.6-1.6 0.6v3.9 3.9l-1.6 3.1-1.6 3.1-1.9 5.6-1.9 5.6 1.6 1.2 1.6 1.2-2.2 4.3-2.2 4.3-1 0.6-1 0.6 0.6 2.9 0.6 2.9-1.4 1.9-1.4 1.9 1.1 1.3 1.1 1.3-0.6 1.6-0.6 1.6 2.1 3.4 2.1 3.4-1 2.7-1 2.7-0.6 8-0.6 8-3.7 3.9-3.7 3.9-8.5 4-8.5 4-4 1.1-4 1.1-5.2 5.6-5.2 5.6v5.6 5.6l9.8 9.4 9.8 9.4 2.2 3.2 2.2 3.2v4.5 4.5l1.4 0.5 1.4 0.5 0.8 7.3 0.8 7.3-0.3 3.3-0.3 3.3 1.8 2 1.8 2 0.4 14.7 0.4 14.7 1.4 2.8 1.4 2.8-0.5 0.8-0.5 0.8 2.1 6.4 2.1 6.4 1.4 1.6 1.4 1.6v2.7 2.7h1.3 1.3l2.3 4.4 2.3 4.4-0.2 6.9-0.2 6.9 1.7 3.9 1.7 3.9v3.8 3.8l2.5 3 2.5 3v2.5 2.5l2 0.6 2 0.6 2.5 3.6 2.5 3.6-1.1 1.4-1.1 1.4 2.2 0.6 2.2 0.6v1.2 1.2l6.5 6.4 6.5 6.4v2.1 2.1l3.3 3.2 3.3 3.2h1 1l1.3 2.5 1.3 2.5 2.9 0.5 2.9 0.5 3 0.6 3 0.6 1.2 1.9 1.2 1.9h4.9 4.9l-0.6-1.5-0.6-1.5h2.1 2.1l0.5 2 0.5 2h0.4 0.4l3-1.5 3-1.5v-2.3-2.3l2.3-1.1 2.3-1.1 2.8-9.2 2.8-9.2-0.7-5.2-0.7-5.2 1.5-1.2 1.5-1.2-1.4-3.7-1.4-3.7-0.6-7.8-0.6-7.8-2-1.7-2-1.7-4.7-6.1-4.7-6.1 0.9-11.4 0.9-11.4 6.4-7 6.4-7 0-1.7 0-1.7h1.4 1.4l3.1-2.9 3.1-2.9 8.2-4.3 8.2-4.3 12.1-0.8 12.1-0.8 4.7-0.6 4.7-0.6 7.4 1.2 7.4 1.2 3.2-1.7 3.2-1.7 5.1 1.7 5.1 1.7 7.9-0.5 7.9-0.5 0.8 1.5 0.8 1.5 4.9-0.9 4.9-0.9 6.4 2.9 6.4 2.9 1.8-0.5 1.8-0.5 1.7 1.8 1.7 1.8 1.2-0.5 1.2-0.5 1.3 1.5 1.3 1.5h1.7 1.7l8.2 7.2 8.2 7.2 3.2 1.2 3.2 1.2 4.5 1.7 4.5 1.7 15.5-0.7 15.5-0.7 4.8 3.6 4.8 3.6v1.8 1.8l2 1.8 2 1.8v3 3l3.2 3.3 3.2 3.3h-1.7-1.7v2.4 2.4l1.2 0.4 1.2 0.4 0.4 6.4 0.4 6.4 1.2 1.5 1.2 1.5 2.1 9.5 2.1 9.5 0.7 26 0.7 26-0.1 5.9-0.1 5.9-1.7 1.3-1.7 1.3-0.7 10.3-0.7 10.3-0.9 8.5-0.9 8.5-4.6 10-4.6 10-2.6 4.9-2.6 4.9 0 5.6 0 5.6-2.3 6.4-2.3 6.4-8.9 9.3-8.9 9.3-3.9 0.6-3.9 0.6v1.4 1.4h-2.3-2.3l-1.7 1.9-1.7 1.9-8.2 2.5-8.2 2.5-12 0.6-12 0.6-6.9 1.4-6.9 1.4-3.6-1.5-3.6-1.5-13.2 0.5-13.2 0.5v-0.9-0.9h-6.6-6.6l-2.9-2.4-2.9-2.4-5.4-0.7-5.4-0.7-0.5-1.3-0.5-1.3-11.8-2.2-11.8-2.2-5.2-3.4-5.2-3.4h-2.5-2.5v-1.3-1.3l-4.9-2.3-4.9-2.3-4.3-4.4-4.3-4.4h-2.6-2.6l-2-2.3-2-2.3-5.7-2.3-5.7-2.3v-1.4-1.4h-2-2v-1.5-1.5h-2-2v-1.5-1.5h-3-3l-9.3-9.5-9.3-9.5-2.8-6-2.8-6h-2.1-2.1l0.6-1.5 0.6-1.5-4.1-4.5-4.1-4.5h-3.3-3.3l-0.6-2-0.6-2h-1.4-1.4l-3.3-2-3.3-2h-2.6-2.6l-0.6-1.5-0.6-1.5h-3-3v-1.9-1.9l-4-3.4-4-3.4 0.6-1.6 0.6-1.6-0.8-1.3-0.8-1.3 0.3-3 0.3-3-1.6-3-1.6-3 0-8.3 0-8.3-1.5-0.6-1.5-0.6v-4.6-4.6l-1.7-3.5-1.7-3.5h-1.4-1.4l-1.3-5-1.3-5 0-0.7 0-0.7-4.5-2.6-4.5-2.6v-2.9-2.9h-1-1l-2.4-5.5-2.4-5.5h-1.2-1.2l1.4-1.7 1.4-1.7-1.5 0.5-1.5 0.5-2.7-1.6-2.7-1.6 0.5-1.6 0.5-1.6-2-1.8-2-1.8v-4.2-4.2l-2.5-5.7-2.5-5.7v-3.4-3.4l-2.4-9.1-2.4-9.1 0.6-5.4 0.6-5.4-2.6-3.1-2.6-3.1 0.9-2.2 0.9-2.2-1.8-4.8-1.8-4.8-1.6-1.7-1.6-1.7 0-1.4 0-1.4-2.5-5.3-2.5-5.3v-1.9-1.9l-3.4-1.4-3.4-1.4-0.7-2.1-0.7-2.1-5.2-2.6-5.2-2.6-4.2-3.9-4.2-3.9h-3.9-3.9l-1.7-1.9-1.7-1.9-3.9-0.7-3.9-0.7-1-1.9-1-1.9-8.4-3.9-8.4-3.9v-1.5-1.5l-5-2.5-5-2.5h-1.1-1.1l-6.6-5.5-6.6-5.5h-2.2-2.2l-1.3-1.6-1.3-1.6-11.1 0.3-11.1 0.3-3.2-0.8-3.2-0.8v1.5 1.5l-8 0.6-8 0.6-6.5 4.2-6.5 4.2v1.9 1.9l-1.4 0.5-1.4 0.5-0.7 4.4-0.7 4.4 2.6 5.1 2.6 5.1-0.6 1.8-0.6 1.8 2.6 4.6 2.6 4.6 1.5 0.6 1.5 0.6v2.1 2.1l1.9-0.5 1.9-0.5 5.5 5.6 5.5 5.6 2.6 7.3 2.6 7.3v2.4 2.4h-1.5-1.5v2 2l-3.7 2.8-3.7 2.8-7.3 7.1-7.3 7.1v2.5 2.5l-4.4 5.9-4.4 5.9 0.5 2.5 0.5 2.5-2.5 5.3-2.5 5.3 1.6 5.9 1.6 5.9-1.3 12.7-1.3 12.7-1.4 1.1-1.4 1.1-1.1 6.5-1.1 6.5-0.3 4.5-0.3 4.5-1.2 6.4-1.2 6.4-1.4 1.9-1.4 1.9 1.5 2.3 1.5 2.3-0.7 5.4-0.7 5.4-1.5 1.8-1.5 1.8h1.7 1.7v0.9 0.9l-2.2 0.3-2.2 0.3-0.8 2.9-0.8 2.9 1.9 6 1.9 6 2.7 2.8 2.7 2.8 5.1 1.7 5.1 1.7 3.8 2.9 3.8 2.9v6 6l-2 2.5-2 2.5v2.4 2.4l-3.5 3.9-3.5 3.9v11.5 11.5l-1.5 1.2-1.5 1.2v2.7 2.7l-4.5 4.4-4.5 4.4v1.1 1.1l-2.5 2.3-2.5 2.3v2.7 2.7l-2.6 1.9-2.6 1.9 1 6.5 1 6.5 0 6.8 0 6.8-3 4.1-3 4.1v1.9 1.9l-1.6 2.4-1.6 2.4 0.5 10.3 0.5 10.3 0.1 2.7 0.1 2.7 2.5 1.6 2.5 1.6v3 3l1.6 3.2 1.6 3.2-1.7 8.5-1.7 8.5 2.6 7 2.6 7 0.8 4.4 0.8 4.4-1.9 5.5-1.9 5.5v1.5 1.5l-3.5 4.3-3.5 4.3v2.5 2.5l1.6 0.6 1.6 0.6-2.4 2.5-2.4 2.5 0.3 6.4 0.3 6.4h-1.6-1.6v2 2l-1.5 0.6-1.5 0.6v1.4 1.4l-3.1 6.2-3.1 6.2-0.5 8.7-0.5 8.7 4.2 5.1 4.2 5.1h1.9 1.9l1.1 4.3 1.1 4.3 5 5.2 5 5.2 3.8 1.7 3.8 1.7 1 4.1 1 4.1-1.4 9-1.4 9 0 0.7 0 0.7-1.5-0.6-1.5-0.6v1.7 1.7l-2 2.5-2 2.5v2.9 2.9l-1.5 0.6-1.5 0.6v2.2 2.2l-3 1.8-3 1.8v2.4 2.4h-2-2v4 4h-2.5-2.5v1.5 1.5h1.5 1.5l-0.7 7-0.7 7 3.4 3.5 3.4 3.5 5.1-0.6 5.1-0.6 3.9-1.4 3.9-1.4v-1.4-1.4l6.3-0.9 6.3-0.9 3.2 3.1 3.2 3.1h1.8 1.8l-0.5 1.4-0.5 1.4-0.7 8.6-0.7 8.6-1.7-0.5-1.7-0.5-3.1 5.2-3.1 5.2v1.2 1.2l-3.7 1.6-3.7 1.6-0.8 1.2-0.8 1.2 0 3 0 3-0.6 2.3-0.6 2.3h-2.3-2.3l-0.7 6.3-0.7 6.3-2.6 3.8-2.6 3.8-1.7 0.9-1.7 0.9 0.4 2.3 0.4 2.3-2.1 1.9-2.1 1.9v2.7 2.7l-1.5 0.6-1.5 0.6v3.1 3.1l-1.4 2.2-1.4 2.2-0.7 4.8-0.7 4.8h-1-1l-2.2 4.8-2.2 4.8 0 12.2 0 12.2 1.2 1.2 1.2 1.2v2.7 2.7l3.1 2.6 3.1 2.6-1.8 0.1-1.8 0.1 2.3 1.6 2.3 1.6v2.5 2.5l1.4 1.6 1.4 1.6 0.1 7 0.1 7-0.8 14-0.8 14-1.1 2-1.1 2-0.5 6.1-0.5 6.1-2.6 5.2-2.6 5.2v2 2l-3.5 7.3-3.5 7.3v4.3 4.3h1.5 1.5l-1 2.6-1 2.6 6.2 7.1 6.2 7.1 1.4 3.2 1.4 3.2-0.1 4.8-0.1 4.8-0.8 4.9-0.8 4.9-1.6 0.9-1.6 0.9-3.6 4.9-3.6 4.9v3.1 3.1l-0.7 0h-0.7l-2.9 2.3-2.9 2.3 1.2 3.5 1.2 3.5 3.9 3.8 3.9 3.8 2.2-0.6 2.2-0.6 4.9 2.5 4.9 2.5v1 1l-2.1 4.1-2.1 4.1-0.9 6.1-0.9 6.1-0.5 2.3-0.5 2.3h-1.5-1.5v1.9 1.9l-4 3.6-4 3.6v3 3l-1.5 0.6-1.5 0.6v3.4 3.4h-1.5-1.5v2.5 2.5l-2-1.1-2-1.1-2.5 5.6-2.5 5.6h-1.3-1.3l-5.2 6.8-5.2 6.8-2 4.6-2 4.6-1.5 0.6-1.5 0.6v2.3 2.3l-2.9 2.8-2.9 2.8-0.7 5-0.7 5-1.4 3.4-1.4 3.4-1-0.6-1-0.6v2.1 2.1h-1-1v2.3 2.3l-2.5 1.1-2.5 1.1 0 3.3 0 3.3-1.9 3.5-1.9 3.5 1.5 2.8 1.5 2.8-3.3 5.2-3.3 5.2 0.2 18.9 0.2 18.9 2.2 2.3 2.2 2.3-1 2.3-1 2.3 1.3 3.5 1.3 3.5 0.1 2.1 0.1 2.1-1.5 1.2-1.5 1.2v4.9 4.9l-2.1 5-2.1 5 1.8 2 1.8 2h-1.7-1.7v3.4 3.4l-1.6 1.4-1.6 1.4-3.2 7-3.2 7-5.8 6.3-5.8 6.3-4.3 7.6-4.3 7.6v1.3 1.3l-2.5 1.9-2.5 1.9-4.5 1.3-4.5 1.3-2.2 2.4-2.2 2.4h-2.2-2.2l-2.2 2.4-2.2 2.4-2.4 5.9-2.4 5.9-1.8-0.3-1.8-0.3-1.1 3-1.1 3h-2.4-2.4l-1.7 1.9-1.7 1.9-8.6 0.4-8.6 0.4-0.4 1.2-0.4 1.2-0.7 0-0.7 0-1.9-1.5zm-560.1-213.6 10-2.1 2.2-1.4 2.2-1.4h1 1v1.3 1.3l3-0.4 3-0.4v-1.3-1.3l6.8-0.7 6.8-0.7 9.4-2.9 9.4-2.9 15.3 0 15.3 0 2.2-1.4 2.2-1.4 5.3-0.7 5.3-0.7 1-1.8 1-1.8 2.8-0.6 2.8-0.6 11.8-1 11.8-1 5.6-3.6 5.6-3.6 4-0.5 4-0.5 2.5-1.8 2.5-1.8 4.5-1.2 4.5-1.2 2.8-2.4 2.8-2.4 5.7 0.6 5.7 0.6 4.6-2.1 4.6-2.1 4.1-4.2 4.1-4.2 2.9-5.4 2.9-5.4 0.7 2.1 0.7 2.1h0.7 0.7l2.1-1.5 2.1-1.5 4-6 4-6 0.7-6.8 0.7-6.8 1-4 1-4 3.6-8.5 3.6-8.5 0.6-13.5 0.6-13.5-0.8-4.4-0.8-4.4-4.6-7.3-4.6-7.3-3.7-3-3.7-3h1.9 1.9l1.8-1.7 1.8-1.7v-0.8-0.8h-1.5-1.5l0-3.2 0-3.2-2.4-5-2.4-5-3.1-2.9-3.1-2.9v-2-2l-2.5-4.3-2.5-4.3h-1.7-1.7l-3.3-3.2-3.3-3.2v-1.8-1.8l-2.1-1.1-2.1-1.1 0.6-3.4 0.6-3.4-2.4-1.1-2.4-1.1-2.7-5.4-2.7-5.4-2 1.1-2 1.1v-1.6-1.6l-4.1-1.6-4.1-1.6-2.5-5.3-2.5-5.3h-1.8-1.8l-1-2.7-1-2.7-4.5-5-4.5-5-1-3.5-1-3.5-3.4-4.6-3.4-4.6-2-0.7-2-0.7-3.1-3.4-3.1-3.4-4-0.5-4-0.5-3-6.7-3-6.7-3.4-1.8-3.4-1.8-3.9-6.5-3.9-6.5-5.2-2.3-5.2-2.3-3.4-0.7-3.4-0.7-5-2.5-5-2.5-3.3-2.5-3.3-2.5 0.5-1.3 0.5-1.3-1.3-4.4-1.3-4.4 1.5-2.3 1.5-2.3-2.3-12-2.3-12-1.3-0.5-1.3-0.5 0.5-1.8 0.5-1.8-3.3-2.1-3.3-2.1-1.8-5.1-1.8-5.1h-1.8-1.8l-2.1-5-2.1-5h-1.6-1.6v-1.5-1.5l-5.5-7.4-5.5-7.4v-1-1l-4.6-3-4.6-3-4.3-0.6-4.3-0.7-5.5 3.9-5.5 3.9 0.5 1.7 0.5 1.7-3.3 4.7-3.3 4.7-0.4 8.2-0.4 8.2-1.5 1.7-1.5 1.7 0.6 2.3 0.6 2.3 4.2 6.5 4.2 6.5 2 2.3 2 2.3h1.8 1.8v2.5 2.5h2 2l0 1.8 0 1.8 3.5 2.3 3.5 2.3v1.7 1.7l2.2 2.3 2.2 2.3h0.9 0.9l4.9 4.2 4.9 4.2v1.1 1.1l4 3.9 4 3.9v1.3 1.3h1.8 1.8l1.4 3.1 1.4 3.1 6.4 2.8 6.4 2.8 1.8 3.6 1.8 3.6h1.9 1.9l0.7 3.5 0.7 3.5h1.5 1.5v3.5 3.5l2.5 1.6 2.5 1.6v2.3 2.3l1.7 1.4 1.7 1.4 3.4 5.4 3.4 5.4-1.3 0.8-1.3 0.8 0.6 1.7 0.6 1.7 2-0.6 2-0.6v1.9 1.9l3.4 3.3 3.4 3.3-0.4 1.1-0.4 1.1 4.5 3.5 4.5 3.5 0.6 3.8 0.6 3.8 4.8 4 4.8 4h1.2 1.2l-0.6 2-0.6 2h2 2l1.2 2.3 1.2 2.3 1.1 0.7 1.1 0.7 2.1 0 2.1 0 0.6 1.5 0.6 1.5h3.5 3.5l1.6 2.4 1.6 2.4 4.2 0.7 4.2 0.7 9 7.9 9 7.9 1.3 0 1.3 0v2.1 2.1l1.1-0.7 1.1-0.7 2.9 2.8 2.9 2.8v2.3 2.3l3.5 1.7 3.5 1.7v2.8 2.8h1.5 1.5l1.6 5.6 1.6 5.6 1.4 0.5 1.4 0.5v1.9 1.9l2.4 1.1 2.4 1.1 0.3 2.1 0.3 2.1 1.2-0.2 1.2-0.2 0 3.3 0 3.3 2.9 5 2.9 5 1.8 3.5 1.8 3.5-0.4 7.8-0.4 7.8h-1.2-1.2l-2.7 5.5-2.7 5.5-2.2 0.8-2.2 0.8 0 2.4 0 2.4-2.2 0.3-2.2 0.3-8 6.9-8 6.9-1.7 2.5-1.7 2.5-1-0.6-1-0.6-1.5 1.2-1.5 1.2-3-1.2-3-1.2-3.3 2.5-3.3 2.5-4.5 0.6-4.5 0.6-2.2 2.6-2.2 2.6h-2.6-2.6l-0.6-1.5-0.6-1.5-1.8 1.6-1.8 1.6-4.1 0.6-4.1 0.5-3.1 3.9-3.1 3.9h-2.2-2.2l-6.2 2.7-6.2 2.7v0.9 0.9l-3.2-0.2-3.2-0.2-4.2 2.2-4.2 2.2-1-1.7-1-1.7 0 1.2 0 1.2-4.6 2.7-4.6 2.7-26.4-0.4-26.4-0.4 0 0.5 0 0.5-40.6-0.3-40.6-0.3-2.1-1.3-2.1-1.3-16-2.8-16-2.8-2.5-2.2-2.5-2.2-4.2-0.7-4.2-0.7v-1.4-1.4h-3.5-3.5l-3.7-1.9-3.7-1.9-5-0.7-5-0.7-2.7-2.5-2.7-2.5-3.8 0.6-3.8 0.6-2-1.5-2-1.5-3.5 0.1-3.5 0.1-2.5 0.7-2.5 0.7 1.2 0.8 1.2 0.8-3 2.5-3 2.5v2.7 2.7l1.6 4.9 1.6 4.9 1.9 2.1 1.9 2.1v3.1 3.1l0.9 0.6 0.9 0.6 0.7 4.7 0.7 4.7 3.7 4 3.7 4 2.6 3.6 2.6 3.6 5.3 1.4 5.3 1.4 3.3-0.2 3.3-0.2 3.1 1.6 3.1 1.6 2.6-0.5 2.6-0.5 3.6 1.8 3.6 1.8 4-0.5 4-0.5 3.9 2 3.9 2 4.5 0.7 4.5 0.7 3.1 1.9 3.1 1.9 7.2 0.7 7.2 0.7-0.6-1.9-0.6-1.9 1.7 2.3 1.7 2.3 2.7 0 2.7 0 1.9 1.5 1.9 1.5h3.1 3.1l1-0.9 1-0.9 6.2-0.6 6.2-0.6 0.7 3 0.7 3 0.9 0.6 0.9 0.6 0-2.3 0-2.3 1.3 1.7 1.3 1.7 3.9 0.9 3.9 0.9 1 0.1 1 0.1 10-2.1zm180.3-47 1.2-1.2 0.6 0.6 0.6 0.6-1.8 0.7-1.8 0.7zm549.3-114.9v-1h-1-1v1 1h1 1zm-35.3-939.1 1.1-1.1 6.8-0.5 6.8-0.5 6.3-5.5 6.3-5.5v-1.8-1.8l1.5-0.6 1.5-0.6v-5.3-5.3l-1.3-1.8-1.3-1.8-6.4-1.5-6.4-1.5-24.7-0.5-24.7-0.5-2.5 1.6-2.5 1.6h-1.2-1.2l-1.6 1.4-1.6 1.4-9.5 0.3-9.5 0.3-1.7-0.1-1.7-0.1v-2.1-2.1l-1.9 0.5-1.9 0.5-1.7-1.9-1.7-1.9h-2.8-2.8v-0.8-0.8l-36.7 0.5-36.7 0.5-1.3 1-1.3 1-2.7-2.5-2.7-2.5-2.4-0.7-2.4-0.7-0.8 1.2-0.8 1.2-3.4-1.1-3.4-1.1-21.6-0.7-21.6-0.7-0.7 1.2-0.7 1.2-1-0.6-1-0.6-1.4 1.2-1.4 1.2-3.6-0.7-3.6-0.7-2.2 2.1-2.2 2.1-3.2-2.4-3.2-2.4-6.2-0.6-6.2-0.6-12-0.1-12-0.1-6.9 1.7-6.9 1.7-12.1-0.2-12.1-0.2-0.3 1-0.3 1-3.1-0.9-3.1-0.9-2.1 1.4-2.1 1.4-1.6-1.4-1.6-1.4-7.5-1.6-7.5-1.6-9.5-0.6-9.5-0.6-4.9-1-4.9-1-2.1 1.1-2.1 1.1-6.5-0.9-6.5-0.9-2.2 1.4-2.2 1.4-4.6-0.6-4.6-0.6v-0.9-0.9h-3.2-3.2l-3.6-2.4-3.6-2.4-5.7-1-5.7-1-17.3-8.7-17.3-8.7-1.1-1.5-1.1-1.5-1.8 0.7-1.8 0.7-1.4-2-1.4-2h-2.4-2.4l-8.3-4-8.3-4h-2.2-2.2l-1.2-1.4-1.2-1.4-4.9-1.8-4.9-1.8v-1.3-1.3h-3-3l-3.7-1.9-3.7-1.9-6-1.7-6-1.7-1.1-1.4-1.1-1.4-5.9-2.2-5.9-2.2-3.5-3.3-3.5-3.3-7.7-3.5-7.7-3.5h-2.2-2.2l-0.5-2-0.5-2h-2.3-2.3l-1.2-3.5-1.2-3.5h-2.4-2.4v-1.8-1.8l-9.7-9.7-9.7-9.7-4 0.9-4 0.9-2.2-1.4-2.2-1.4-4.1 4.9-4.1 4.9 0.7 9 0.7 9 2.9 2.7 2.9 2.7v1.1 1.1l5.5 5.4 5.5 5.4v2.2 2.2l2 0.5 2 0.5v2.1 2.1h2 2v0.9 0.9l6.1 6.6 6.1 6.6h2.3 2.3l4.6 4.9 4.6 4.9 4.3 0.6 4.3 0.6 1.2 3 1.2 3 1.6 0.8 1.6 0.8 12 1.3 12 1.3 2.9 1.4 2.9 1.4h1.4 1.4l4.4 3.6 4.4 3.6 1.9-0.6 1.9-0.6 2.4 2.5 2.4 2.5h1.9 1.9l4.9 2.5 4.9 2.5h6.4 6.4l1.3 1.6 1.3 1.6 6.8-0.5 6.8-0.5v1.3 1.3l3.1 1.1 3.1 1.1-0.6 1-0.6 1 5.3 0 5.3 0 3 0.9 3 0.9 2.2-1.4 2.2-1.4 5 3.6 5 3.6 0.4 1.1 0.4 1.1 2.9-1.9 2.9-1.9 1.5 2.2 1.5 2.2h5.8 5.8l4.7 2 4.7 2 2.2-1.4 2.2-1.4 2.7 1.4 2.7 1.4v1.5 1.5h3 3v1.4 1.4l7.8 0.6 7.8 0.6 4.4 2 4.4 2 1.5-1.5 1.5-1.5 5.1 1.4 5.1 1.4 2.7 1.5 2.7 1.5h3 3l0.6 1.5 0.6 1.5h6.9 6.9l1.5 2.3 1.5 2.3 1.8-1.7 1.8-1.7 1.1 1.4 1.1 1.4 11.5-1.5 11.5-1.5 17.2 0.6 17.2 0.6 0.6-1.5 0.6-1.5h11.9 11.9l0.4 1.3 0.4 1.3 3-1.7 3-1.7 3.6 2.5 3.6 2.5h3 3l0.7 1.1 0.7 1.1 17.1-0.7 17.1-0.7 4.3-1.9 4.3-1.9h9.5 9.5l2.7-1.4 2.7-1.4 8.7-0.4 8.7-0.4 0.3 2 0.3 2 8.5-0.3 8.5-0.3 5.2-4 5.2-4 3.6-1 3.6-1 6.5 3.6 6.5 3.6 3.7 0 3.7 0 4.5-1.3 4.5-1.3 0.3-1.5 0.3-1.5 4-0.6 4-0.6 2.7 0.7 2.7 0.7 5.2 4.9 5.2 4.9 3.3 0 3.3 0 1.9 1.5 1.9 1.5 1.4-1.1 1.4-1.1 9.9 1.3 9.9 1.3 1.2 1.4 1.2 1.4h1.7 1.7l1.1-1.1zm-294.7-41.3v-0.4l-0.9-0.6-0.9-0.6-0.6 1-0.6 1h1.6 1.6zm483-134.1v-1.5h2.8 2.8l1.7-1.2 1.7-1.2 3.6-8 3.6-8 4.1-4.2 4.1-4.2h1.8 1.8l1-1.9 1-1.9 4-0.7 4-0.7 1.7-3.7 1.7-3.7 2.3-0.3 2.3-0.3-0.7-1.7-0.7-1.7-0.1-2-0.1-2-1.1-1.8-1.1-1.8-7.8-1-7.8-1-3.9 1.5-3.9 1.5h-3.2-3.2l-6.7 1.9-6.7 1.9-4.5 3.8-4.5 3.8v1.6 1.6l-2 1.8-2 1.8v11.1 11.1l2 1.2 2 1.2v2.4 2.4l4.3 2.5 4.3 2.5 0.8 0 0.8 0v-1.5zm75-40.2 6.5-0.4 1-0.9 1-0.9 4.1-0.7 4.1-0.7 2.7-2.8 2.7-2.8-0.5-3.1-0.5-3.1 1.8 0.6 1.8 0.6v-1.4-1.4l-3-2.9-3-2.9v-2-2l-3.1-3.2-3.1-3.2-2.9 0.8-2.9 0.8v-1.4-1.4l-3.7 0.6-3.7 0.6-7 2.4-7 2.4-5.8 5.7-5.8 5.7v2.2 2.2l0.6 1.6 0.6 1.6 0.9-0.6 0.9-0.6v1.4 1.4l3.3 3.1 3.3 3.1 3 1.6 3 1.6 2-0.6 2-0.6zM557.9 898.5l6.5-3.2-0.6-3.3-0.6-3.3h1.1 1.1v-14-14l-2.5-5-2.5-5 1.2-1.9 1.2-1.9-1.3-10.5-1.3-10.5 1.9-3.9 1.9-3.9 0.6-6.5 0.6-6.5 7.1-14 7.1-14 1.7-1.5 1.7-1.5 3.8-8.5 3.8-8.5 2.4-2.8 2.4-2.8v-5.9-5.9l2.5-1.6 2.5-1.6v-1.9-1.9l2.2 0.3 2.2 0.3 0.9-3.5 0.9-3.5 12.7-12.7 12.7-12.7h1.3 1.3l0.6-3 0.6-3 3.8-1.9 3.8-1.9 0.6-2 0.6-2h2 2l-0.5-0.8-0.5-0.8 6.9-6.2 6.9-6.2 1.3 0 1.3 0 2.3-3.5 2.3-3.5h2.4 2.4l3.2-4 3.2-4h1.7 1.7l0.5-1.3 0.5-1.3 7.7-1.8 7.7-1.8 1.6-2.4 1.6-2.4 1.6 0 1.6 0-1.5 0.9-1.5 0.9 0.6 0.6 0.6 0.6 7.3-3.7 7.3-3.7 12.6 0.7 12.6 0.7 1.5 1.3 1.5 1.3 10 1.2 10 1.2 5.2 2.9 5.2 2.9 2.9-0.6 2.9-0.6 0.7 2.6 0.7 2.6 6.5 3.1 6.5 3.1 0.5 1.4 0.5 1.4h2.3 2.3l2.7 3.5 2.7 3.5h2.2 2.2l4.7 5.5 4.7 5.5h1.8 1.8l1.7 3.5 1.7 3.5h1.8 1.8l2.2 3 2.2 3 6.2 3.1 6.2 3.1 1.8 1.9 1.8 1.9h3.5 3.5l0 1.3 0 1.3 6.2 2.7 6.2 2.7 7.3 0.7 7.3 0.7v1.3 1.3l5.1 0.7 5.1 0.7 3.3 2.9 3.3 2.9 4.6 1.6 4.6 1.6v1.9 1.9h2.3 2.3l4 2.7 4 2.7 6 0.2 6 0.2 15 2.1 15 2.1 6-0.6 6-0.6 2.3-1.5 2.3-1.5 3 1.5 3 1.5 5.3-0.1 5.3-0.1 3.6 0.7 3.6 0.7 7.7-6.7 7.7-6.7v-5.1-5.1l-1.7-1.8-1.7-1.8h-2.6-2.6l-2.3-1.6-2.3-1.6-8.9-0.5-8.9-0.5 0-1.1 0-1.1-0.9 1.5-0.9 1.5-4.4-2.1-4.4-2.1-0.1-3.2-0.1-3.2-1.6-2.4-1.6-2.4h-4-4l-2 1.1-2 1.1-3-2.6-3-2.6-2.2-0.4-2.2-0.4-5-0.5-5-0.5-1.5-1.8-1.5-1.8-3-1.9-3-1.9-1.8-2.3-1.8-2.3h-3.7-3.7l-2.9-3.1-2.9-3.1-7.2-3.3-7.2-3.3-3.7-0.7-3.7-0.7-0.5-1.9-0.5-1.9-1.1 0.4-1.1 0.4-5.1-1.7-5.1-1.7-3.4-1.7-3.4-1.7-3-2.8-3-2.8-6.2-0.4-6.2-0.4-0.8-0.8-0.8-0.8 1.8-1.3 1.8-1.3-3-1.6-3-1.6-1.6 0.6-1.6 0.6-4.8-3-4.8-3-3.5-1.5-3.5-1.5-2.4-2.6-2.4-2.6h-3.1-3.1l-4.2-3.1-4.2-3.1v-1-1l-2.9 0.6-2.9 0.6-2.3-2.4-2.3-2.4-3.1 0-3.1 0-1.7-3-1.7-3h-2.4-2.4l-2.9-3-2.9-3h-31.8-31.8l-5 2.5-5 2.5-3.6-0.7-3.6-0.7-0.6 1-0.6 1-6.2 3.1-6.2 3.1h-3.7-3.7l-6.6 3.7-6.6 3.7-2.2-0.2-2.2-0.2v1.9 1.9l-4.2 0.7-4.2 0.7-1.7 0.5-1.7 0.5-0.3 1.5-0.3 1.5-5.5 2.2-5.5 2.2-1 2.2-1 2.2h-1.8-1.8v1.8 1.8l-4.9 2.2-4.9 2.2-5.6 6.4-5.6 6.4v1.1 1.1l-3.5 1.7-3.5 1.7v0.9 0.9l-4.2 4.9-4.2 4.9h-1.4-1.4l-10.5 10.6-10.5 10.6 0.5 1.3 0.5 1.3-1.9 0.6-1.9 0.6v2.5 2.5l-2.5 1-2.5 1-1.7 3.5-1.7 3.5h-2.3-2.3v2.5 2.5l-2.1 1.1-2.1 1.1-1.9 4.2-1.9 4.2 0 3.7 0 3.7-2.3 2.8-2.3 2.8-2.7 4.9-2.7 4.9v3.8 3.8l-1.5 1.3-1.5 1.3 0.6 2.9 0.6 2.9-1.2 1.4-1.2 1.4 0.7 4.9 0.7 4.9-1.5 5.6-1.5 5.6 1.5 1.5 1.5 1.5-1.1 2.8-1.1 2.8-1.6 7.7-1.6 7.7 0.3 17.1 0.3 17.1-1.2 0.5-1.2 0.5v3 3h1.4 1.4l-3.3 6.3-3.3 6.3-1.2 4.5-1.2 4.5 1 0.3 1 0.3 1.2 5.5 1.2 5.5 2.4 0.9 2.4 0.9 1.5 1.5 1.5 1.5h5.9 5.9l6.5-3.2zm-7.5-153.8v-1h-1-1v1 1h1 1zm574-152v-1h-1-1v1 1h1 1zm706 661.3-1.5-0.5-5.7-5.6-5.7-5.6-1.6-7.3-1.6-7.3 0.7-4.7 0.7-4.7 1.9-1.3 1.9-1.3v-2.9-2.9l2-1.2 2-1.2v-2.9-2.9l2-0.5 2-0.5v-1.6-1.6l-1.9-3.2-1.9-3.2-2.1-1.1-2.1-1.1v-2-2h-1.9-1.9l-7.8-3.6-7.8-3.6-2.4 0.6-2.4 0.6v-2.9-2.9l-4-2.8-4-2.8v-2-2l-2-0.5-2-0.5v-2.9-2.9h-2.1-2.1l0.7-5 0.7-5h-1.5-1.5l-0.7-3.5-0.7-3.5h-1.4-1.4v-8.3-8.3l-1.1-1.1-1.1-1.1 1.2-19.8 1.2-19.8 1.4-1.6 1.4-1.6v-4.1-4.1l2-1.1 2-1.1-0.6-1-0.6-1 4.1-6.5 4.1-6.5v-3.6-3.6l1.5-0.6 1.5-0.6v-2.8-2.8l1.9-0.6 1.9-0.6 1.1-7.2 1.1-7.2 0.3-10.2 0.3-10.2-4-4.1-4-4.1-7.1-3.9-7.1-3.9h-2-2l-2.2-3.5-2.2-3.5h-2-2l0.7-4.4 0.7-4.4-1.6-3.2-1.6-3.2 2.8-2.9 2.8-2.9h-1.3-1.3l1.7-1.8 1.7-1.8v-5.2-5.2h1.4 1.4l10.1-11.9 10.1-11.9 2.7-0.7 2.7-0.7 2-1.8 2-1.8 4.5-1.2 4.5-1.2 1.8-1.6 1.8-1.6v-1.8-1.8h2.1 2.1l1.5-3.5 1.5-3.5h2.5 2.5v-1-1l6.1-3.1 6.1-3.1 2.7 0.3 2.7 0.3 0.6 5.5 0.6 5.5-4.7 5.5-4.7 5.5-1.7 2.6-1.7 2.6-3 1.2-3 1.2v1.1 1.1l-2.7 2.8-2.7 2.8h-2.7-2.7l-0.7 3-0.7 3-4.4 3.3-4.4 3.3 1.7 1.7 1.7 1.7-2.2 6.2-2.2 6.2 0.6 2.8 0.6 2.8 1.4 0.5 1.4 0.5v1.9 1.9l2.8 1 2.8 1 2.8 2.6 2.8 2.6v3 3l1.8 1.3 1.8 1.3 0.5 14.3 0.5 14.3 1.2 2.2 1.2 2.2v8.1 8.1h-0.9-0.9l0.1 4.3 0.1 4.3-3.8 9-3.8 9-1.1 3-1.1 3-2.8 7-2.8 7-0.7 5.5-0.7 5.5-1.8 2-1.8 2-1.7 10.4-1.7 10.4 2.3 11.9 2.3 11.9 3 4.2 3 4.2 1.3 0.8 1.3 0.8v1.9 1.9l4.8 4.1 4.8 4.1 1.3 0 1.3 0-0.3 2.3-0.3 2.3 2.5 0.3 2.5 0.3 1.6 1.4 1.6 1.4 14.2 1 14.2 1 2.5-1.1 2.5-1.1 3.5 3.9 3.5 3.9 0 1.6 0 1.6-1.5 0.6-1.5 0.6v3.1 3.1l-2.5 3.3-2.5 3.3v2.3 2.3l-2.5 4.3-2.5 4.3h-1-1v2.3 2.3l-2.3 8.5-2.3 8.5 1.5 2.2 1.5 2.2-1.6 1.8-1.6 1.8v5.2 5.2l-1.7 0.6-1.7 0.6-6.4 2.9-6.4 2.9-1.6-0.1-1.6-0.1-1.5-0.5zm85.7-20.8-2.8-2.5h-3.3-3.3l-1.6-4.3-1.6-4.3v-3.2-3.2l3-1.8 3-1.8v-2.8-2.8l2.5-1.1 2.5-1.1v-0.8-0.8h-1-1v-2.5-2.5h1.5 1.5v-3-3l-2.4-1.3-2.4-1.3-5.4-7.5-5.4-7.5-2.9-0.3-2.9-0.3-2.4-1.9-2.4-1.9h-3.9-3.9v-1-1h-2-2v-7.8-7.8l3.5-3.4 3.5-3.4v-1.1-1.1l4.6-3.3 4.6-3.3 4.1 0.6 4.1 0.6 2.8 0.5 2.8 0.5v2 2l2.1-0.7 2.1-0.7-0.7 1.1-0.7 1.1h1.9 1.9l2.1 2.5 2.1 2.5 6 3 6 3h5.5 5.5l4.2 2.6 4.2 2.6 3.7 3.6 3.7 3.6 1.1 5.3 1.1 5.3-4.6 10.9-4.6 10.9-2 1.8-2 1.8v2.3 2.3l-2 8.8-2 8.8-3.1 3.3-3.1 3.3h-2.1-2.1l-1.8 2-1.8 2-4.6 0-4.6 0-2.8-2.5zm-103.7 0.5v-1h1.1 1.1l-0.6 1-0.6 1h-0.4-0.4zm74.5-517-0.6-1-4-1.6-4-1.6 0.7-4.3 0.7-4.3-2.7-1.2-2.7-1.2 0.6-3.8 0.6-3.8h-1.6-1.6v-3.8-3.8l-2-1.8-2-1.8v-3.2-3.2l-1.5-4.3-1.5-4.3-1.6-1.8-1.6-1.8 1-20.4 1-20.4 6.8-9.2 6.8-9.2 2.3-0.9 2.3-0.9v-1.3-1.3l4.4-4.3 4.4-4.3-0.9-2.3-0.9-2.3 1-0.6 1-0.6 0-4.7 0-4.7 3.1-6.5 3.1-6.5-0.5-2.7-0.5-2.7 1.6-1.3 1.6-1.3-0.6-3.4-0.6-3.4 1.1-4.9 1.1-4.9 2.8-1.7 2.8-1.7v-2.2-2.2l5.3-5.6 5.3-5.6 8-1.8 8-1.8 9-0.7 9-0.7 5.3 4.6 5.3 4.6v8.4 8.4l-2.4 5.4-2.4 5.4-2.6 0.7-2.6 0.7v1.8 1.8l-2.9 2.8-2.9 2.8-0.7 4.4-0.7 4.4 2.2 3 2.2 3h2.1 2.1l1.2 1.9 1.2 1.9 6.7 0.7 6.7 0.7 2.2 2.4 2.2 2.4h1.9 1.9l4.4 4.5 4.4 4.5h1.2 1.2l2 2.8 2 2.8 11.5-0.1 11.5-0.1 7.1-1.8 7.1-1.8v-2.4-2.4l6.5-7.3 6.5-7.3v-1.9-1.9l4.5-5.8 4.5-5.8v-1.6-1.6l2-1.2 2-1.2v-1.9-1.9l1.4-0.5 1.4-0.5 0.6-2.9 0.6-2.9 3.5-3.3 3.5-3.3v-1.6-1.6l4-3.9 4-3.9v-2.6-2.6l3-3.5 3-3.5 0-4.2 0-4.2 1.4-0.8 1.4-0.8 0.3-3 0.3-3 2.3-0.3 2.3-0.3-0.7-4.8-0.7-4.8 1.5-0.6 1.5-0.6 0.4-7.6 0.4-7.6 2.2-1.6 2.2-1.6v-3.3-3.3l1.5-1.2 1.5-1.2v-1.4-1.4l-1.4-2.7-1.4-2.7 0.9-6.4 0.9-6.4-1.4-2.1-1.4-2.1 1.2-4 1.2-4 1.6-3.2 1.6-3.2-1.5-0.6-1.5-0.6 0.7-15.3 0.7-15.3-1.7-5.1-1.7-5.1-2.5-2.4-2.5-2.4 0.6-3.3 0.6-3.3h-4-4l-0.6-2.7-0.6-2.7-9.6-9.7-9.6-9.7h-1.8-1.8v-2.8-2.8l-7-6.9-7-6.9v-2.1-2.1l-7-7.6-7-7.6-2.2-0.3-2.2-0.3-3.8-6.5-3.8-6.5 0-6 0-6 0.6-3.8 0.6-3.8 1.4 0.5 1.4 0.5-1-1.9-1-1.9v-4.1-4.1l2-3.9 2-3.9v-3.5-3.5l2-1.1 2-1.1v-2-2h-0.9-0.9l0.8-3.2 0.8-3.2 1.1-5.8 1.1-5.8 1.9-1.2 1.9-1.2v-4.3-4.3l1.5-0.6 1.5-0.6-0.6-2-0.6-2 1.1 0.7 1.1 0.7v-5.2-5.2l1.6-1.7 1.6-1.7-1.6-3-1.6-3 1.4-4.8 1.4-4.8-1.2-0.8-1.2-0.8-0.6 2.2-0.6 2.2-0.7-2.2-0.7-2.2 0.7-2.1 0.7-2.1-1.6-1.7-1.6-1.7-3-6.6-3-6.6-0.2-9.4-0.2-9.4 1.3-5 1.3-5 1.2-2 1.2-2 0.6-3.7 0.6-3.7 1.5-0.6 1.5-0.6v-2.5-2.5l2.1-0.7 2.1-0.7-0.6-1.6-0.6-1.6 1.2-0.8 1.2-0.8-1.3-1.5-1.3-1.5 0.6-2.9 0.6-2.9 2.9-2.7 2.9-2.7 0.7-5.8 0.7-5.8 1.9-1.7 1.9-1.7v-1.7-1.7l2-1.8 2-1.8-0.5-1.3-0.5-1.3 2-1.2 2-1.2v-2.7-2.7l3-1.8 3-1.8v-3.7-3.7l2.3-0.3 2.3-0.3 2.2-4.5 2.2-4.5 1.5-0.8 1.5-0.8v-3.4-3.4l4-2.6 4-2.6 1.2-3.4 1.2-3.4h1.8 1.8l1.9-3.8 1.9-3.8 1.6-1.3 1.6-1.3V2.5 0.6l7.7 0.3 7.7 0.3 3.8 5 3.8 5-1.5 1.1-1.5 1.1 0.6 2.6 0.6 2.6-1.7 5-1.7 5-2.4 1.6-2.4 1.6v1.8 1.8l-2.5 2.4-2.5 2.4-1.1 4.3-1.1 4.3h-1.8-1.8l-1.1 4.3-1.1 4.3-2 2.2-2 2.2 0.7 2.7 0.7 2.7-2.5 3.2-2.5 3.2-0.7 7.4-0.7 7.4-1.8 5.5-1.8 5.5-0.6 9.8-0.6 9.8-2.5 4.9-2.5 4.9v2.5 2.5l-2 0.6-2 0.6v2.5 2.5l-1.6 3.1-1.6 3.1 1.2 0.7 1.2 0.7-1.7 0.7-1.7 0.7 0.7 13.5 0.7 13.5h-2.4-2.4l0.5 2.6 0.5 2.6-1.1-0.7-1.1-0.7v2 2l-1.9 1-1.9 1-1.8 7.2-1.8 7.2 0.6 15.3 0.6 15.3-3.4 4.7-3.4 4.7-1.6 3.2-1.6 3.2-2 13.4-2 13.4-1.1 2.8-1.1 2.8 0.7 5.9 0.7 5.9 9.8 9.5 9.8 9.5 1.2 3.2 1.2 3.2 5 7.6 5 7.6 7.6 3.5 7.6 3.5 5.8 2.5 5.8 2.5v1.1 1.1h2.5 2.5v1 1l6 4.7 6 4.7v1.6 1.6l3.3 3.2 3.3 3.2h1.7 1.7v1.1 1.1l-1.5-0.6-1.5-0.6v1.3 1.3l1.7 1.4 1.7 1.4-0.6 23.3-0.6 23.3-1.5 2.7-1.5 2.7-0.9 23.3-0.9 23.3-1.5 1.2-1.5 1.2-3.2 9.4-3.2 9.4 0.6 4.3 0.6 4.3h-1.6-1.6v3.2 3.2l-2.4 2.6-2.4 2.6-1.7 5.2-1.7 5.2-2.9 2.1-2.9 2.1v2.3 2.3l-7.5 14.8-7.5 14.8-5.9 6.1-5.9 6.1-0.7 5.5-0.7 5.5-0.4 1.6-0.4 1.6-2.3 1.1-2.3 1.1-2.4 5.8-2.4 5.8-1.3 1-1.3 1-0.6 4-0.6 4-5.1 5.3-5.1 5.3h-1.3-1.3v2.5 2.5h-1.6-1.6l-2 4.6-2 4.6-1.7 0.6-1.7 0.6-1.5 1.3-1.5 1.3-9.8 0.8-9.8 0.8-1.1-1.3-1.1-1.3h-3.3-3.3l-1.1-2-1.1-2h-2.1-2.1l-1.1-3-1.1-3h-1.8-1.8l-7.2-3.6-7.2-3.6-4.2-2.9-4.2-2.9h-7.5-7.5l-0.4-1.1-0.4-1.1-12.8 1.3-12.8 1.3-4.7 3.5-4.7 3.5-5.2 2.4-5.2 2.4v2.8 2.8l-1.9 1.8-1.9 1.8-1.6 3.2-1.6 3.2v14.6 14.6l1.9 2.7 1.9 2.7 0.5 3.7 0.5 3.7-1.4 1.2-1.4 1.2v7.4 7.4h-2.5-2.5v0.9 0.9l1 0.6 1 0.6v2.6 2.6l-3.4-0.6-3.4-0.6-1.1 3.4-1.1 3.4h-1.9-1.9z" fill="#222"/>
</svg>
